<svg width="290" height="33" viewBox="0 0 290 33" fill="none" xmlns="http://www.w3.org/2000/svg">
<path d="M12.2115 5.34894C12.1638 6.23974 11.8876 7.02281 11.3829 7.69813C10.8786 8.36513 10.2122 8.87771 9.38363 9.23588C10.3287 9.72686 11.0398 10.3686 11.5172 11.1612C12.003 11.9541 12.2201 12.8335 12.1685 13.7992C12.083 15.3977 11.4628 16.6389 10.3079 17.5229C9.15339 18.3987 7.65851 18.7894 5.8232 18.6951C3.97939 18.6005 2.52611 18.0542 1.46334 17.0563C0.409079 16.0588 -0.0755281 14.765 0.00952393 13.1749C0.0616239 12.2008 0.371781 11.3402 0.939996 10.593C1.50821 9.84577 2.27927 9.28848 3.25318 8.92108C2.47585 8.48045 1.87201 7.90264 1.44164 7.18765C1.02022 6.46477 0.833334 5.65792 0.880981 4.76712C0.963806 3.21862 1.5393 2.01682 2.60745 1.16172C3.67561 0.306625 5.07636 -0.0764201 6.8097 0.0125869C8.55155 0.10203 9.90801 0.626658 10.8791 1.58647C11.8502 2.54628 12.2943 3.80044 12.2115 5.34894ZM9.07938 13.4903C9.12747 12.5912 8.89007 11.8527 8.36717 11.2749C7.85321 10.6892 7.1459 10.3732 6.24523 10.3269C5.34457 10.2807 4.60765 10.5183 4.03446 11.0399C3.46978 11.5619 3.16316 12.2766 3.11463 13.184C3.06698 14.0748 3.29231 14.8002 3.79061 15.36C4.29741 15.9204 5.01813 16.2245 5.95278 16.2725C6.88743 16.3205 7.62771 16.0997 8.17362 15.6102C8.72804 15.121 9.02995 14.4144 9.07938 13.4903ZM9.12112 5.30295C9.16342 4.51205 8.96449 3.85068 8.52433 3.31884C8.08462 2.77868 7.46966 2.4883 6.67946 2.44773C5.88925 2.40715 5.2516 2.62068 4.7665 3.08831C4.28185 3.54761 4.01703 4.19769 3.97206 5.03854C3.92753 5.87107 4.12154 6.54471 4.55409 7.05946C4.99514 7.57465 5.61077 7.85253 6.40097 7.89311C7.19118 7.93369 7.82883 7.72016 8.31393 7.25253C8.80753 6.78533 9.07659 6.13547 9.12112 5.30295Z" fill="#5930FF"/>
<path d="M33.0348 19.842L29.9377 19.683L30.5296 8.6187L25.1511 8.34251L24.5593 19.4068L21.4622 19.2478L22.1849 5.73585L33.7576 6.3301L33.0348 19.842Z" fill="#5930FF"/>
<path d="M48.7596 14.0127C48.6478 16.1023 48.0742 17.7467 47.0388 18.9457C46.0038 20.1365 44.6706 20.69 43.0392 20.6062C41.5268 20.5285 40.342 19.9793 39.485 18.9586L39.1423 25.3649L36.0452 25.2058L37.0458 6.49895L39.9007 6.64555L39.9547 8.02577C40.9218 6.99017 42.187 6.51251 43.7504 6.59279C45.4328 6.67918 46.7168 7.36287 47.6026 8.64388C48.4973 9.917 48.8863 11.6442 48.7696 13.8254L48.7596 14.0127ZM45.6893 13.5921C45.7614 12.2434 45.5425 11.1594 45.0325 10.3401C44.531 9.52132 43.7704 9.08573 42.7508 9.03338C41.4848 8.96837 40.5482 9.43369 39.9412 10.4293L39.6206 16.4235C40.1253 17.5013 41.0149 18.0729 42.2894 18.1384C43.275 18.189 44.0647 17.8413 44.6584 17.0955C45.261 16.3417 45.6046 15.1739 45.6893 13.5921Z" fill="#5930FF"/>
<path d="M60.3696 7.69662L63.4539 7.855L62.7312 21.3669L59.6468 21.2085L60.1291 12.1923L54.2429 20.931L51.1585 20.7727L51.8812 7.26075L54.9656 7.41913L54.4833 16.4354L60.3696 7.69662Z" fill="#5930FF"/>
<path d="M77.0823 22.1038L73.9852 21.9448L74.2263 17.4367C73.4178 17.5788 72.5717 17.6272 71.6881 17.5818C69.8018 17.485 68.3852 16.9698 67.4383 16.0362C66.4918 15.0944 66.0628 13.7951 66.1515 12.1384L66.3732 7.99238L69.4703 8.15142L69.2485 12.2974C69.196 13.2798 69.3797 13.9863 69.7997 14.4169C70.2283 14.848 70.9013 15.0871 71.819 15.1342C72.6517 15.1769 73.498 15.1244 74.3579 14.9766L74.7079 8.43289L77.805 8.59193L77.0823 22.1038Z" fill="#5930FF"/>
<path d="M89.709 9.20319L92.7934 9.36158L92.0706 22.8735L88.9863 22.7151L89.4686 13.6988L83.5823 22.4376L80.498 22.2792L81.2207 8.76732L84.3051 8.9257L83.8228 17.942L89.709 9.20319Z" fill="#5930FF"/>
<path d="M107.046 23.6425L103.949 23.4834L104.241 18.0262L98.8753 17.7507L98.5834 23.2079L95.4864 23.0489L96.2091 9.53697L99.3062 9.69601L99.0049 15.3281L104.371 15.6036L104.672 9.97153L107.769 10.1306L107.046 23.6425Z" fill="#5930FF"/>
<path d="M117.089 24.1582L117.812 10.6463L123.407 10.9336C125.294 11.0305 126.712 11.4289 127.663 12.1289C128.614 12.8205 129.058 13.7699 128.993 14.9771C128.96 15.6015 128.73 16.1532 128.304 16.6322C127.887 17.1033 127.285 17.4522 126.497 17.6789C127.388 17.9083 128.082 18.3155 128.579 18.9003C129.076 19.4852 129.304 20.1564 129.264 20.914C129.196 22.1711 128.669 23.1041 127.683 23.7129C126.704 24.3222 125.327 24.5812 123.551 24.49L117.089 24.1582ZM120.494 18.5603L120.315 21.9196L123.705 22.0936C125.294 22.1752 126.118 21.6582 126.178 20.5426C126.238 19.4187 125.461 18.8153 123.846 18.7324L120.494 18.5603ZM120.611 16.3874L123.16 16.5183C124.919 16.6086 125.825 16.1459 125.88 15.1303C125.937 14.0646 125.133 13.4724 123.47 13.3536L120.78 13.2155L120.611 16.3874Z" fill="#5930FF"/>
<path d="M135.566 15.8656L138.599 16.0213C139.729 16.0794 140.705 16.3215 141.525 16.7476C142.346 17.1738 142.955 17.7435 143.351 18.4567C143.756 19.1704 143.934 19.9851 143.885 20.9009C143.811 22.2912 143.25 23.3811 142.202 24.1705C141.154 24.9598 139.798 25.3159 138.132 25.2387L131.976 24.9226L132.699 11.4107L135.796 11.5697L135.566 15.8656ZM149.029 25.7983L145.932 25.6392L146.655 12.1273L149.752 12.2864L149.029 25.7983ZM135.436 18.3007L135.203 22.659L138.223 22.8141C138.979 22.8529 139.584 22.7003 140.037 22.3563C140.499 22.0043 140.748 21.487 140.784 20.8043C140.821 20.1217 140.633 19.5735 140.221 19.16C139.817 18.7386 139.25 18.5049 138.52 18.4591L135.436 18.3007Z" fill="#5930FF"/>
<path d="M159.921 13.5599C161.654 13.6489 163.013 14.2905 163.997 15.4847C164.981 16.6706 165.421 18.2376 165.317 20.1857L165.309 20.3356C165.205 22.2837 164.551 23.8321 163.348 24.9808C162.154 26.13 160.583 26.6546 158.638 26.5546C156.743 26.4574 155.246 25.7627 154.148 24.4708C153.05 23.1789 152.558 21.4673 152.672 19.3361L152.719 18.4619C152.875 15.5481 153.525 13.269 154.669 11.6248C155.814 9.98051 157.442 8.99975 159.555 8.6825C160.74 8.5096 161.51 8.30283 161.863 8.0622C162.226 7.81368 162.419 7.46464 162.443 7.01508L164.941 7.14335C164.896 7.9842 164.72 8.65968 164.411 9.16977C164.103 9.67986 163.651 10.0866 163.055 10.3899C162.46 10.6849 161.449 10.9419 160.023 11.1609C158.718 11.361 157.707 11.7849 156.99 12.4327C156.283 13.0809 155.782 14.0027 155.488 15.1981C156.786 14.0209 158.264 13.4748 159.921 13.5599ZM159.179 15.9636C158.176 15.9121 157.372 16.2048 156.767 16.8416C156.163 17.47 155.824 18.4711 155.75 19.8448C155.681 21.1435 155.907 22.1694 156.429 22.9225C156.951 23.6756 157.731 24.0788 158.767 24.132C159.795 24.1848 160.609 23.8634 161.209 23.1679C161.817 22.4645 162.161 21.3802 162.239 19.915C162.301 18.7494 162.066 17.8149 161.533 17.1113C161.008 16.3998 160.224 16.0173 159.179 15.9636Z" fill="#5930FF"/>
<path d="M179.602 20.7314C179.49 22.8211 178.917 24.4654 177.881 25.6645C176.846 26.8552 175.513 27.4087 173.882 27.3249C172.369 27.2472 171.184 26.698 170.327 25.6773L169.985 32.0836L166.888 31.9246L167.888 13.2177L170.743 13.3643L170.797 14.7445C171.764 13.7089 173.029 13.2312 174.593 13.3115C176.275 13.3979 177.559 14.0816 178.445 15.3626C179.34 16.6357 179.729 18.3629 179.612 20.5441L179.602 20.7314ZM176.532 20.3108C176.604 18.9621 176.385 17.8781 175.875 17.0589C175.373 16.24 174.613 15.8045 173.593 15.7521C172.327 15.6871 171.391 16.1524 170.784 17.1481L170.463 23.1422C170.968 24.22 171.857 24.7916 173.132 24.8571C174.117 24.9077 174.907 24.5601 175.501 23.8142C176.103 23.0604 176.447 21.8926 176.532 20.3108Z" fill="#5930FF"/>
<path d="M190.12 27.9083C189.997 27.6432 189.901 27.2167 189.83 26.6287C188.791 27.5854 187.557 28.0271 186.13 27.9538C184.745 27.8827 183.635 27.4376 182.802 26.6184C181.968 25.7992 181.581 24.8193 181.642 23.6787C181.719 22.2385 182.322 21.1633 183.451 20.4532C184.588 19.7353 186.172 19.4284 188.203 19.5327L190.102 19.6302L190.15 18.7436C190.187 18.0442 190.017 17.4762 189.64 17.0394C189.264 16.5943 188.667 16.3508 187.852 16.309C187.146 16.2727 186.559 16.4179 186.09 16.7444C185.622 17.0627 185.373 17.4882 185.345 18.021L182.248 17.862C182.287 17.121 182.575 16.4429 183.11 15.8276C183.646 15.2039 184.353 14.731 185.231 14.4088C186.117 14.087 187.092 13.9533 188.154 14.0079C189.768 14.0908 191.034 14.5565 191.951 15.405C192.869 16.2452 193.302 17.3861 193.251 18.8277L192.925 24.9218C192.86 26.1373 192.982 27.1161 193.292 27.8583L193.28 28.0706L190.12 27.9083ZM186.833 25.5481C187.445 25.5796 188.027 25.4633 188.577 25.1994C189.137 24.936 189.566 24.5656 189.864 24.0884L190 21.5409L188.33 21.4551C187.183 21.3962 186.31 21.5476 185.712 21.9092C185.113 22.2708 184.795 22.8096 184.756 23.5256C184.725 24.1084 184.896 24.5846 185.268 24.9543C185.649 25.3162 186.171 25.5141 186.833 25.5481Z" fill="#5930FF"/>
<path d="M207.244 17.6554L202.77 17.4256L202.177 28.5274L199.079 28.3684L199.673 17.2666L195.251 17.0395L195.38 14.6293L207.373 15.2452L207.244 17.6554Z" fill="#5930FF"/>
<path d="M212.547 19.8185L215.58 19.9743C216.71 20.0323 217.686 20.2744 218.507 20.7006C219.327 21.1267 219.936 21.6964 220.332 22.4097C220.737 23.1234 220.915 23.9381 220.866 24.8539C220.792 26.2442 220.231 27.334 219.183 28.1234C218.135 28.9128 216.779 29.2689 215.113 29.1917L208.957 28.8756L209.68 15.3637L212.777 15.5227L212.547 19.8185ZM212.417 22.2537L212.184 26.612L215.204 26.7671C215.96 26.8059 216.565 26.6533 217.018 26.3092C217.48 25.9573 217.729 25.44 217.766 24.7573C217.802 24.0746 217.614 23.5265 217.202 23.113C216.798 22.6915 216.231 22.4579 215.501 22.4121L212.417 22.2537Z" fill="#5930FF"/>
<path d="M237.986 26.6221L242.588 17.0535L246.462 17.2524L245.74 30.7644L242.643 30.6053L243.121 21.664L238.844 30.4103L236.742 30.3023L233.412 21.1153L232.931 30.1066L229.834 29.9476L230.556 16.4357L234.456 16.6359L237.986 26.6221Z" fill="#5930FF"/>
<path d="M255.285 31.505C253.322 31.4042 251.762 30.7188 250.603 29.4488C249.453 28.1709 248.931 26.5246 249.039 24.5099L249.059 24.1353C249.131 22.7866 249.459 21.5971 250.042 20.5668C250.635 19.5287 251.427 18.7387 252.419 18.1969C253.41 17.6551 254.497 17.4146 255.678 17.4752C257.556 17.5716 258.973 18.233 259.93 19.4592C260.895 20.6858 261.32 22.3731 261.205 24.521L261.14 25.7448L252.129 25.2821C252.163 26.4025 252.494 27.3044 253.122 27.9878C253.758 28.6717 254.582 29.0395 255.593 29.0915C257.012 29.1643 258.198 28.6617 259.15 27.5836L260.736 29.2303C260.141 30.0095 259.368 30.6001 258.418 31.0021C257.476 31.3963 256.432 31.5639 255.285 31.505ZM255.535 19.9097C254.685 19.8661 253.981 20.1221 253.423 20.6778C252.874 21.234 252.499 22.0287 252.299 23.0619L258.2 23.3649L258.212 23.1401C258.198 22.121 257.963 21.3409 257.506 20.7998C257.05 20.2505 256.393 19.9538 255.535 19.9097Z" fill="#5930FF"/>
<path d="M274.926 32.2631L271.829 32.104L272.121 26.6468L266.755 26.3713L266.463 31.8285L263.366 31.6695L264.089 18.1576L267.186 18.3166L266.885 23.9486L272.251 24.2242L272.552 18.5921L275.649 18.7512L274.926 32.2631Z" fill="#5930FF"/>
<path d="M290 19.4881L289.277 33L286.193 32.8416L286.458 27.8839L283.565 27.7354L280.356 32.5419L277.144 32.3769L280.686 27.0866C279.855 26.6933 279.227 26.1602 278.803 25.4873C278.388 24.8148 278.202 24.0581 278.247 23.2173C278.314 21.9601 278.862 20.9573 279.891 20.2087C280.928 19.4522 282.288 19.1088 283.972 19.1785L290 19.4881ZM281.34 23.4512C281.31 24.0173 281.498 24.4903 281.903 24.8701C282.318 25.242 282.861 25.4452 283.532 25.4797L286.578 25.6361L286.787 21.7399L283.932 21.5933C283.176 21.5544 282.562 21.7108 282.092 22.0623C281.622 22.4138 281.371 22.8768 281.34 23.4512Z" fill="#5930FF"/>
</svg>
