<svg width="549" height="63" viewBox="0 0 549 63" fill="none" xmlns="http://www.w3.org/2000/svg">
<path d="M23.1176 10.2116C23.0274 11.9122 22.5045 13.4072 21.549 14.6964C20.5944 15.9698 19.3327 16.9484 17.7642 17.6321C19.5532 18.5695 20.8996 19.7946 21.8032 21.3077C22.723 22.8215 23.1339 24.5003 23.0361 26.344C22.8743 29.3955 21.7002 31.7652 19.5138 33.4529C17.3283 35.1247 14.4984 35.8707 11.0239 35.6907C7.5334 35.51 4.78218 34.4671 2.77026 32.562C0.774429 30.6577 -0.142983 28.1877 0.0180298 25.152C0.11666 23.2924 0.70382 21.6494 1.77951 20.223C2.8552 18.7965 4.3149 17.7325 6.1586 17.0312C4.68705 16.19 3.54391 15.0869 2.72918 13.7219C1.93139 12.3418 1.57759 10.8015 1.66779 9.10086C1.82459 6.14464 2.91405 3.85029 4.93617 2.21783C6.9583 0.585375 9.61007 -0.145893 12.8915 0.0240296C16.189 0.194785 18.7569 1.19635 20.5952 3.02871C22.4336 4.86108 23.2744 7.25538 23.1176 10.2116ZM17.1882 25.7543C17.2793 24.0377 16.8298 22.6279 15.8399 21.5248C14.8669 20.4066 13.5279 19.8034 11.8229 19.7151C10.1178 19.6268 8.72276 20.0805 7.63766 21.0761C6.56864 22.0727 5.98819 23.4371 5.89631 25.1695C5.80611 26.8702 6.23268 28.2549 7.17601 29.3237C8.13544 30.3934 9.49984 30.974 11.2692 31.0657C13.0386 31.1573 14.44 30.7358 15.4735 29.8012C16.5231 28.8674 17.0946 27.5185 17.1882 25.7543ZM17.2672 10.1238C17.3473 8.61391 16.9707 7.35129 16.1374 6.33597C15.305 5.30474 14.1408 4.7504 12.6449 4.67294C11.149 4.59547 9.94182 5.00311 9.02348 5.89586C8.10598 6.77272 7.60465 8.01378 7.51951 9.61904C7.43521 11.2084 7.8025 12.4944 8.62137 13.4772C9.45632 14.4607 10.6218 14.9912 12.1177 15.0687C13.6136 15.1461 14.8208 14.7385 15.7391 13.8457C16.6736 12.9538 17.1829 11.7132 17.2672 10.1238Z" fill="#5930FF"/>
<path d="M62.5384 37.8802L56.6753 37.5766L57.7956 16.4539L47.6136 15.9266L46.4932 37.0493L40.6301 36.7457L41.9983 10.9503L63.9065 12.0847L62.5384 37.8802Z" fill="#5930FF"/>
<path d="M92.3069 26.7515C92.0953 30.7408 91.0094 33.8801 89.0493 36.1692C87.0899 38.4424 84.5661 39.499 81.4777 39.3391C78.6145 39.1908 76.3716 38.1423 74.7491 36.1936L74.1005 48.4238L68.2374 48.1202L70.1316 12.4071L75.5362 12.687L75.6384 15.3219C77.4691 13.3449 79.8644 12.433 82.8241 12.5862C86.009 12.7512 88.4398 14.0564 90.1166 16.502C91.8103 18.9325 92.5467 22.2298 92.3259 26.3939L92.3069 26.7515ZM86.4945 25.9485C86.6311 23.3737 86.2166 21.3043 85.2512 19.7403C84.3018 18.1771 82.862 17.3455 80.9317 17.2455C78.535 17.1214 76.762 18.0098 75.6128 19.9105L75.0058 31.354C75.9613 33.4116 77.6454 34.5029 80.0582 34.6278C81.9241 34.7244 83.419 34.0607 84.5429 32.6368C85.6838 31.1977 86.3343 28.9683 86.4945 25.9485Z" fill="#5930FF"/>
<path d="M114.286 14.6935L120.125 14.9959L118.757 40.7914L112.918 40.489L113.831 23.2761L102.687 39.9593L96.8484 39.6569L98.2166 13.8614L104.056 14.1638L103.143 31.3767L114.286 14.6935Z" fill="#5930FF"/>
<path d="M145.925 42.1982L140.062 41.8946L140.518 33.2882C138.988 33.5596 137.386 33.6519 135.713 33.5653C132.142 33.3804 129.46 32.3968 127.668 30.6146C125.876 28.8166 125.064 26.3361 125.232 23.1733L125.651 15.2582L131.514 15.5618L131.095 23.4769C130.995 25.3523 131.343 26.7011 132.138 27.5232C132.949 28.3461 134.224 28.8026 135.961 28.8925C137.537 28.9742 139.139 28.8739 140.767 28.5916L141.43 16.0992L147.293 16.4028L145.925 42.1982Z" fill="#5930FF"/>
<path d="M169.828 17.5697L175.667 17.8721L174.299 43.6676L168.46 43.3652L169.373 26.1523L158.23 42.8354L152.391 42.5331L153.759 16.7376L159.598 17.04L158.685 34.2529L169.828 17.5697Z" fill="#5930FF"/>
<path d="M202.65 45.1357L196.787 44.832L197.339 34.4137L187.181 33.8877L186.629 44.306L180.766 44.0024L182.134 18.2069L187.997 18.5106L187.427 29.2626L197.584 29.7887L198.155 19.0366L204.018 19.3402L202.65 45.1357Z" fill="#5930FF"/>
<path d="M221.663 46.1202L223.031 20.3247L233.623 20.8732C237.194 21.0581 239.879 21.8188 241.68 23.1551C243.481 24.4755 244.32 26.288 244.198 28.5926C244.134 29.7847 243.7 30.8379 242.893 31.7524C242.103 32.6518 240.963 33.3179 239.472 33.7507C241.159 34.1887 242.472 34.9659 243.413 36.0824C244.354 37.1989 244.786 38.4804 244.709 39.9267C244.582 42.3266 243.584 44.1078 241.716 45.2701C239.864 46.4332 237.257 46.9277 233.895 46.7537L221.663 46.1202ZM228.109 35.4333L227.768 41.8464L234.186 42.1788C237.194 42.3345 238.755 41.3475 238.868 39.2178C238.982 37.0721 237.51 35.9202 234.454 35.7619L228.109 35.4333ZM228.329 31.2851L233.154 31.535C236.484 31.7074 238.2 30.8241 238.303 28.885C238.411 26.8506 236.89 25.72 233.741 25.4932L228.65 25.2296L228.329 31.2851Z" fill="#5930FF"/>
<path d="M256.64 30.2888L262.383 30.5862C264.522 30.697 266.369 31.1591 267.922 31.9727C269.476 32.7863 270.628 33.8739 271.378 35.2356C272.145 36.5981 272.482 38.1535 272.389 39.9018C272.248 42.556 271.186 44.6366 269.203 46.1436C267.22 47.6506 264.651 48.3304 261.498 48.183L249.844 47.5795L251.212 21.7841L257.075 22.0877L256.64 30.2888ZM282.127 49.2513L276.264 48.9477L277.632 23.1522L283.495 23.4558L282.127 49.2513ZM256.394 34.9377L255.952 43.2581L261.671 43.5542C263.102 43.6283 264.247 43.337 265.104 42.6801C265.979 42.0082 266.45 41.0206 266.52 39.7174C266.589 38.4141 266.233 37.3677 265.452 36.5782C264.688 35.7737 263.615 35.3276 262.233 35.2401L256.394 34.9377Z" fill="#5930FF"/>
<path d="M302.746 25.887C306.028 26.0569 308.6 27.2819 310.463 29.5617C312.327 31.8257 313.16 34.8173 312.963 38.5364L312.947 38.8225C312.75 42.5416 311.513 45.4977 309.235 47.6907C306.973 49.8845 304.001 50.886 300.317 50.6952C296.73 50.5095 293.897 49.1834 291.818 46.717C289.74 44.2507 288.808 40.9831 289.024 36.9143L289.112 35.2455C289.407 29.6827 290.638 25.3318 292.805 22.1927C294.971 19.0537 298.055 17.1813 302.055 16.5757C304.298 16.2456 305.754 15.8509 306.424 15.3915C307.11 14.917 307.476 14.2507 307.522 13.3924L312.251 13.6373C312.166 15.2426 311.831 16.5321 311.247 17.5059C310.663 18.4797 309.808 19.2562 308.68 19.8353C307.553 20.3985 305.64 20.8891 302.941 21.3071C300.469 21.6891 298.555 22.4984 297.199 23.7351C295.859 24.9726 294.911 26.7324 294.354 29.0145C296.812 26.7671 299.609 25.7246 302.746 25.887ZM301.341 30.476C299.443 30.3777 297.922 30.9364 296.777 32.1521C295.632 33.3519 294.991 35.263 294.851 37.8854C294.72 40.3649 295.148 42.3234 296.137 43.7612C297.125 45.1989 298.6 45.9686 300.563 46.0702C302.509 46.171 304.05 45.5575 305.185 44.2297C306.337 42.8869 306.987 40.8168 307.135 38.0195C307.253 35.7944 306.807 34.0102 305.798 32.667C304.805 31.3088 303.32 30.5784 301.341 30.476Z" fill="#5930FF"/>
<path d="M340.005 39.5782C339.793 43.5675 338.707 46.7067 336.747 48.9958C334.788 51.269 332.264 52.3256 329.176 52.1657C326.313 52.0175 324.07 50.969 322.447 49.0203L321.798 61.2505L315.935 60.9469L317.83 25.2337L323.234 25.5136L323.336 28.1486C325.167 26.1715 327.562 25.2596 330.522 25.4129C333.707 25.5778 336.138 26.883 337.815 29.3286C339.508 31.7591 340.245 35.0564 340.024 39.2206L340.005 39.5782ZM334.193 38.7752C334.329 36.2004 333.915 34.131 332.949 32.5669C332 31.0037 330.56 30.1721 328.63 30.0722C326.233 29.9481 324.46 30.8364 323.311 32.7372L322.704 44.1807C323.659 46.2382 325.343 47.3295 327.756 47.4544C329.622 47.5511 331.117 46.8874 332.241 45.4634C333.382 44.0244 334.032 41.795 334.193 38.7752Z" fill="#5930FF"/>
<path d="M359.916 53.2794C359.685 52.7734 359.502 51.9591 359.368 50.8366C357.4 52.6631 355.065 53.5064 352.363 53.3664C349.741 53.2307 347.641 52.3808 346.062 50.8169C344.484 49.253 343.752 47.3823 343.868 45.2049C344.014 42.4553 345.155 40.4027 347.291 39.0471C349.445 37.6764 352.444 37.0906 356.288 37.2897L359.883 37.4759L359.973 35.7832C360.044 34.4481 359.722 33.3637 359.008 32.5298C358.295 31.6801 357.167 31.2152 355.623 31.1353C354.287 31.0661 353.176 31.3433 352.288 31.9667C351.401 32.5742 350.93 33.3865 350.877 34.4037L345.013 34.1001C345.088 32.6856 345.633 31.3909 346.647 30.2163C347.662 29.0257 349 28.1228 350.662 27.5076C352.339 26.8933 354.184 26.6382 356.194 26.7423C359.25 26.9005 361.647 27.7896 363.384 29.4095C365.121 31.0136 365.941 33.1916 365.844 35.9437L365.227 47.5779C365.104 49.8984 365.335 51.7671 365.921 53.184L365.9 53.5893L359.916 53.2794ZM353.695 48.7737C354.853 48.8337 355.954 48.6118 356.997 48.108C358.056 47.605 358.867 46.898 359.432 45.9869L359.69 41.1235L356.529 40.9598C354.357 40.8473 352.705 41.1363 351.572 41.8267C350.438 42.517 349.835 43.5456 349.763 44.9125C349.704 46.025 350.026 46.9342 350.731 47.6401C351.452 48.3309 352.44 48.7088 353.695 48.7737Z" fill="#5930FF"/>
<path d="M392.334 33.7057L383.865 33.2671L382.741 54.4614L376.878 54.1578L378.002 32.9635L369.63 32.53L369.874 27.9288L392.578 29.1045L392.334 33.7057Z" fill="#5930FF"/>
<path d="M402.373 37.8354L408.116 38.1327C410.255 38.2435 412.102 38.7057 413.655 39.5193C415.209 40.3329 416.361 41.4205 417.112 42.7821C417.878 44.1446 418.215 45.7 418.122 47.4483C417.981 50.1026 416.919 52.1832 414.936 53.6902C412.953 55.1971 410.385 55.8769 407.231 55.7296L395.577 55.1261L396.945 29.3306L402.808 29.6342L402.373 37.8354ZM402.127 42.4843L401.686 50.8046L407.404 51.1008C408.835 51.1749 409.98 50.8835 410.837 50.2267C411.712 49.5548 412.184 48.5672 412.253 47.2639C412.322 45.9606 411.966 44.9142 411.185 44.1248C410.421 43.3202 409.348 42.8742 407.966 42.7866L402.127 42.4843Z" fill="#5930FF"/>
<path d="M450.533 50.824L459.244 32.5566L466.579 32.9365L465.211 58.7319L459.347 58.4283L460.253 41.3585L452.157 58.056L448.176 57.8498L441.872 40.3111L440.962 57.4763L435.099 57.1727L436.467 31.3772L443.85 31.7595L450.533 50.824Z" fill="#5930FF"/>
<path d="M483.281 60.1458C479.566 59.9534 476.611 58.6449 474.417 56.2204C472.24 53.7808 471.253 50.6379 471.457 46.7916L471.495 46.0764C471.631 43.5016 472.252 41.2308 473.356 39.2639C474.478 37.282 475.977 35.7739 477.854 34.7396C479.732 33.7052 481.789 33.246 484.024 33.3618C487.579 33.5458 490.262 34.8084 492.074 37.1493C493.901 39.4911 494.706 42.7123 494.489 46.8129L494.365 49.1493L477.306 48.2659C477.37 50.4048 477.997 52.1266 479.186 53.4313C480.391 54.7368 481.95 55.4391 483.864 55.5383C486.551 55.6774 488.795 54.7178 490.598 52.6596L493.601 55.8034C492.473 57.2909 491.01 58.4184 489.211 59.1859C487.429 59.9383 485.453 60.2583 483.281 60.1458ZM483.754 38.0094C482.145 37.9261 480.813 38.4149 479.756 39.4758C478.716 40.5376 478.007 42.0547 477.628 44.0273L488.799 44.6058L488.822 44.1766C488.796 42.231 488.351 40.7417 487.486 39.7088C486.623 38.66 485.378 38.0935 483.754 38.0094Z" fill="#5930FF"/>
<path d="M520.464 61.5931L514.601 61.2895L515.153 50.8712L504.995 50.3452L504.443 60.7635L498.58 60.4599L499.948 34.6644L505.811 34.968L505.241 45.7201L515.398 46.2461L515.969 35.4941L521.832 35.7977L520.464 61.5931Z" fill="#5930FF"/>
<path d="M549 37.2045L547.632 63L541.793 62.6976L542.295 53.2329L536.818 52.9493L530.742 62.1254L524.662 61.8105L531.367 51.7108C529.794 50.96 528.606 49.9422 527.803 48.6576C527.016 47.3737 526.666 45.9291 526.751 44.3239C526.878 41.9239 527.915 40.0094 529.862 38.5802C531.826 37.136 534.401 36.4804 537.587 36.6135L549 37.2045ZM532.606 44.7705C532.549 45.8513 532.904 46.7542 533.672 47.4793C534.457 48.1893 535.485 48.5772 536.756 48.643L542.522 48.9416L542.917 41.5034L537.512 41.2235C536.081 41.1494 534.92 41.4479 534.029 42.1189C533.139 42.79 532.664 43.6739 532.606 44.7705Z" fill="#5930FF"/>
</svg>
