<svg width="464" height="55" viewBox="0 0 464 55" fill="none" xmlns="http://www.w3.org/2000/svg">
<path d="M19.5384 8.91489C19.4621 10.3996 19.0202 11.7047 18.2127 12.8302C17.4058 13.9419 16.3395 14.7962 15.0138 15.3931C16.5259 16.2114 17.6638 17.281 18.4275 18.6019C19.2048 19.9236 19.5522 21.3891 19.4695 22.9987C19.3327 25.6628 18.3404 27.7315 16.4926 29.2049C14.6454 30.6644 12.2536 31.3156 9.31712 31.1586C6.36703 31.0008 4.04177 30.0903 2.34135 28.4271C0.654526 26.7646 -0.120845 24.6083 0.0152383 21.9581C0.0985982 20.3347 0.59485 18.9003 1.50399 17.655C2.41314 16.4096 3.64683 15.4808 5.20509 14.8685C3.96137 14.1341 2.99521 13.1711 2.30663 11.9794C1.63235 10.7746 1.33333 9.42987 1.40957 7.9452C1.54209 5.36436 2.46287 3.36137 4.17192 1.9362C5.88097 0.511042 8.12217 -0.127367 10.8955 0.0209782C13.6825 0.17005 15.8528 1.04443 17.4065 2.64412C18.9603 4.2438 19.6709 6.33406 19.5384 8.91489ZM14.527 22.4839C14.604 20.9853 14.2241 19.7545 13.3875 18.7915C12.5651 17.8153 11.4334 17.2887 9.99238 17.2116C8.55132 17.1345 7.37224 17.5306 6.45514 18.3998C5.55164 19.2698 5.06106 20.461 4.9834 21.9734C4.90717 23.4581 5.26769 24.667 6.06497 25.6001C6.87585 26.5339 8.02901 27.0408 9.52445 27.1208C11.0199 27.2008 12.2043 26.8328 13.0778 26.0169C13.9649 25.2017 14.4479 24.0241 14.527 22.4839ZM14.5938 8.83825C14.6615 7.52008 14.3432 6.4178 13.6389 5.5314C12.9354 4.63113 11.9515 4.14717 10.6871 4.07955C9.4228 4.01192 8.40256 4.3678 7.6264 5.14718C6.85095 5.91269 6.42725 6.99615 6.35529 8.39757C6.28404 9.78512 6.59446 10.9079 7.28655 11.7658C7.99223 12.6244 8.97723 13.0876 10.2416 13.1552C11.5059 13.2228 12.5261 12.8669 13.3023 12.0875C14.092 11.3089 14.5225 10.2258 14.5938 8.83825Z" fill="#5930FF"/>
<path d="M52.8557 33.07L47.9004 32.805L48.8473 14.3645L40.2417 13.9042L39.2948 32.3447L34.3395 32.0796L35.4958 9.55975L54.0121 10.5502L52.8557 33.07Z" fill="#5930FF"/>
<path d="M78.0153 23.3545C77.8365 26.8372 76.9187 29.5778 75.262 31.5762C73.6061 33.5608 71.473 34.4832 68.8627 34.3436C66.4428 34.2142 64.5472 33.2989 63.176 31.5976L62.6277 42.2748L57.6724 42.0097L59.2733 10.8316L63.8412 11.0759L63.9276 13.3763C65.4748 11.6503 67.4992 10.8542 70.0007 10.988C72.6925 11.132 74.7469 12.2715 76.1641 14.4065C77.5956 16.5283 78.218 19.4069 78.0313 23.0423L78.0153 23.3545ZM73.1028 22.6535C73.2182 20.4056 72.868 18.599 72.052 17.2336C71.2496 15.8689 70.0327 15.1429 68.4013 15.0556C66.3757 14.9473 64.8772 15.7228 63.9059 17.3822L63.3929 27.3725C64.2004 29.1688 65.6238 30.1215 67.663 30.2306C69.24 30.315 70.5035 29.7356 71.4534 28.4924C72.4176 27.2361 72.9674 25.2898 73.1028 22.6535Z" fill="#5930FF"/>
<path d="M96.5913 12.8277L101.526 13.0917L100.37 35.6115L95.4349 35.3476L96.2065 20.3204L86.7886 34.8851L81.8536 34.6211L83.01 12.1012L87.9449 12.3652L87.1733 27.3923L96.5913 12.8277Z" fill="#5930FF"/>
<path d="M123.332 36.8397L118.376 36.5747L118.762 29.0611C117.469 29.298 116.115 29.3787 114.701 29.303C111.683 29.1416 109.416 28.2829 107.901 26.7271C106.387 25.1573 105.701 22.9918 105.842 20.2306L106.197 13.3206L111.152 13.5857L110.798 20.4957C110.714 22.133 111.008 23.3105 111.68 24.0282C112.365 24.7466 113.442 25.1451 114.91 25.2237C116.243 25.2949 117.597 25.2073 118.973 24.9609L119.533 14.0548L124.488 14.3199L123.332 36.8397Z" fill="#5930FF"/>
<path d="M143.534 15.3387L148.469 15.6026L147.313 38.1225L142.378 37.8585L143.15 22.8314L133.732 37.396L128.797 37.1321L129.953 14.6122L134.888 14.8762L134.116 29.9033L143.534 15.3387Z" fill="#5930FF"/>
<path d="M171.274 39.4041L166.319 39.1391L166.786 30.0437L158.201 29.5845L157.734 38.6799L152.778 38.4148L153.935 15.895L158.89 16.16L158.408 25.5468L166.993 26.006L167.475 16.6192L172.43 16.8843L171.274 39.4041Z" fill="#5930FF"/>
<path d="M187.343 40.2637L188.5 17.7438L197.452 18.2227C200.47 18.3841 202.74 19.0481 204.261 20.2148C205.783 21.3675 206.493 22.9499 206.389 24.9618C206.336 26.0025 205.968 26.922 205.287 27.7203C204.619 28.5055 203.655 29.0871 202.396 29.4649C203.821 29.8472 204.931 30.5258 205.726 31.5005C206.521 32.4753 206.887 33.594 206.822 34.8566C206.714 36.9518 205.871 38.5068 204.292 39.5215C202.727 40.5369 200.523 40.9687 197.682 40.8167L187.343 40.2637ZM192.791 30.9339L192.504 36.5326L197.928 36.8227C200.47 36.9587 201.789 36.0971 201.885 34.2377C201.981 32.3646 200.737 31.3589 198.154 31.2207L192.791 30.9339ZM192.977 27.3124L197.056 27.5305C199.87 27.681 201.32 26.9099 201.407 25.2171C201.498 23.441 200.213 22.454 197.551 22.256L193.249 22.0258L192.977 27.3124Z" fill="#5930FF"/>
<path d="M216.905 26.4426L221.759 26.7022C223.567 26.7989 225.128 27.2024 226.441 27.9127C227.754 28.623 228.728 29.5725 229.362 30.7612C230.01 31.9507 230.294 33.3086 230.216 34.8349C230.097 37.1521 229.199 38.9685 227.523 40.2841C225.847 41.5997 223.676 42.1932 221.011 42.0645L211.161 41.5377L212.318 19.0178L217.273 19.2829L216.905 26.4426ZM238.446 42.9971L233.491 42.7321L234.647 20.2122L239.603 20.4773L238.446 42.9971ZM216.697 30.5012L216.324 37.765L221.157 38.0235C222.367 38.0882 223.334 37.8339 224.059 37.2604C224.798 36.6738 225.197 35.8117 225.255 34.6739C225.314 33.5361 225.013 32.6226 224.353 31.9333C223.707 31.231 222.8 30.8416 221.632 30.7652L216.697 30.5012Z" fill="#5930FF"/>
<path d="M255.873 22.5998C258.646 22.7481 260.82 23.8175 262.395 25.8079C263.97 27.7844 264.674 30.3961 264.508 33.6429L264.495 33.8927C264.328 37.1395 263.282 39.7202 261.357 41.6347C259.446 43.5499 256.933 44.4243 253.82 44.2577C250.788 44.0956 248.394 42.9379 246.637 40.7847C244.88 38.6315 244.093 35.7789 244.275 32.2268L244.35 30.7698C244.599 25.9134 245.64 22.115 247.471 19.3746C249.302 16.6342 251.908 14.9996 255.288 14.4708C257.184 14.1827 258.415 13.8381 258.981 13.437C259.561 13.0228 259.871 12.4411 259.909 11.6918L263.906 11.9056C263.834 13.307 263.551 14.4328 263.058 15.283C262.564 16.1331 261.841 16.811 260.888 17.3165C259.936 17.8082 258.319 18.2365 256.037 18.6015C253.948 18.935 252.33 19.6415 251.184 20.7211C250.052 21.8015 249.251 23.3378 248.78 25.3301C250.858 23.3681 253.222 22.458 255.873 22.5998ZM254.686 26.606C253.081 26.5202 251.795 27.0079 250.828 28.0693C249.86 29.1167 249.318 30.7851 249.201 33.0746C249.089 35.2392 249.451 36.949 250.287 38.2042C251.122 39.4593 252.369 40.1313 254.027 40.22C255.672 40.308 256.975 39.7724 257.934 38.6132C258.907 37.4409 259.457 35.6337 259.582 33.1916C259.682 31.2491 259.305 29.6915 258.452 28.5188C257.613 27.3331 256.358 26.6954 254.686 26.606Z" fill="#5930FF"/>
<path d="M287.363 34.5524C287.184 38.0351 286.266 40.7757 284.61 42.7741C282.954 44.7587 280.821 45.6811 278.21 45.5415C275.791 45.4121 273.895 44.4967 272.524 42.7955L271.975 53.4726L267.02 53.2076L268.621 22.0295L273.189 22.2738L273.275 24.5741C274.823 22.8481 276.847 22.052 279.348 22.1858C282.04 22.3298 284.095 23.4693 285.512 25.6043C286.943 27.7262 287.566 30.6048 287.379 34.2402L287.363 34.5524ZM282.451 33.8513C282.566 31.6035 282.216 29.7969 281.4 28.4314C280.597 27.0667 279.38 26.3408 277.749 26.2535C275.723 26.1451 274.225 26.9207 273.254 28.5801L272.741 38.5704C273.548 40.3667 274.971 41.3194 277.011 41.4285C278.588 41.5128 279.851 40.9334 280.801 39.6903C281.765 38.434 282.315 36.4877 282.451 33.8513Z" fill="#5930FF"/>
<path d="M304.191 46.5138C303.996 46.072 303.841 45.3611 303.728 44.3811C302.065 45.9757 300.091 46.7119 297.807 46.5897C295.592 46.4712 293.817 45.7293 292.483 44.364C291.148 42.9986 290.53 41.3655 290.628 39.4646C290.751 37.0641 291.716 35.2722 293.521 34.0887C295.341 32.8921 297.876 32.3807 301.125 32.5545L304.164 32.717L304.239 31.2393C304.299 30.0737 304.028 29.127 303.424 28.399C302.822 27.6572 301.868 27.2514 300.563 27.1816C299.434 27.1212 298.495 27.3632 297.744 27.9074C296.995 28.4378 296.597 29.1469 296.551 30.035L291.596 29.7699C291.659 28.535 292.12 27.4048 292.977 26.3793C293.834 25.3399 294.965 24.5517 296.37 24.0146C297.788 23.4783 299.346 23.2555 301.046 23.3464C303.629 23.4846 305.654 24.2608 307.122 25.675C308.591 27.0753 309.284 28.9768 309.201 31.3795L308.68 41.5363C308.576 43.5621 308.771 45.1935 309.267 46.4305L309.249 46.7843L304.191 46.5138ZM298.934 42.5802C299.912 42.6326 300.842 42.4389 301.724 41.999C302.619 41.5599 303.305 40.9427 303.782 40.1473L304 35.9014L301.329 35.7585C299.493 35.6604 298.097 35.9126 297.139 36.5153C296.181 37.118 295.671 38.016 295.61 39.2093C295.56 40.1806 295.833 40.9743 296.428 41.5906C297.038 42.1936 297.873 42.5235 298.934 42.5802Z" fill="#5930FF"/>
<path d="M331.59 29.4256L324.432 29.0427L323.482 47.5457L318.527 47.2806L319.477 28.7777L312.401 28.3992L312.607 24.3822L331.796 25.4087L331.59 29.4256Z" fill="#5930FF"/>
<path d="M340.075 33.0309L344.929 33.2905C346.737 33.3872 348.297 33.7907 349.61 34.501C350.924 35.2112 351.897 36.1607 352.531 37.3495C353.179 38.5389 353.464 39.8968 353.386 41.4231C353.267 43.7403 352.369 45.5567 350.693 46.8724C349.017 48.188 346.846 48.7814 344.181 48.6528L334.331 48.1259L335.487 25.6061L340.443 25.8712L340.075 33.0309ZM339.867 37.0895L339.494 44.3533L344.327 44.6118C345.537 44.6765 346.504 44.4221 347.229 43.8487C347.968 43.2621 348.366 42.3999 348.425 41.2621C348.483 40.1244 348.183 39.2108 347.523 38.5216C346.877 37.8192 345.97 37.4298 344.802 37.3534L339.867 37.0895Z" fill="#5930FF"/>
<path d="M380.778 44.3701L388.141 28.4225L394.34 28.7541L393.183 51.2739L388.228 51.0089L388.993 36.1066L382.151 50.6838L378.786 50.5038L373.459 35.1922L372.689 50.1777L367.734 49.9126L368.89 27.3928L375.13 27.7266L380.778 44.3701Z" fill="#5930FF"/>
<path d="M408.456 52.5083C405.316 52.3403 402.818 51.198 400.964 49.0813C399.124 46.9515 398.29 44.2077 398.463 40.8498L398.495 40.2254C398.61 37.9776 399.135 35.9951 400.068 34.278C401.016 32.5478 402.283 31.2312 403.87 30.3282C405.456 29.4252 407.195 29.0243 409.084 29.1253C412.089 29.286 414.357 30.3883 415.888 32.432C417.432 34.4764 418.112 37.2885 417.929 40.8684L417.824 42.9081L403.406 42.1369C403.461 44.0042 403.99 45.5074 404.995 46.6464C406.013 47.7861 407.331 48.3992 408.949 48.4858C411.219 48.6072 413.116 47.7695 414.64 45.9727L417.178 48.7172C416.225 50.0159 414.989 51.0002 413.468 51.6702C411.962 52.3271 410.292 52.6064 408.456 52.5083ZM408.856 33.1828C407.496 33.1101 406.37 33.5368 405.477 34.463C404.598 35.39 403.998 36.7145 403.678 38.4365L413.12 38.9416L413.139 38.5669C413.117 36.8683 412.741 35.5681 412.01 34.6664C411.28 33.7508 410.229 33.2563 408.856 33.1828Z" fill="#5930FF"/>
<path d="M439.882 53.7718L434.927 53.5067L435.394 44.4114L426.808 43.9522L426.341 53.0475L421.386 52.7825L422.542 30.2626L427.498 30.5277L427.016 39.9144L435.601 40.3736L436.083 30.9869L441.038 31.2519L439.882 53.7718Z" fill="#5930FF"/>
<path d="M464 32.4801L462.844 55L457.909 54.736L458.333 46.4732L453.704 46.2256L448.569 54.2365L443.43 53.9616L449.097 45.1444C447.768 44.4889 446.764 43.6004 446.085 42.4788C445.42 41.358 445.124 40.0969 445.196 38.6954C445.303 36.6003 446.18 34.9288 447.825 33.6811C449.485 32.4203 451.661 31.848 454.354 31.9642L464 32.4801ZM450.144 39.0854C450.096 40.0289 450.396 40.8172 451.045 41.4502C451.709 42.07 452.578 42.4087 453.652 42.4661L458.525 42.7268L458.859 36.2331L454.291 35.9888C453.081 35.9241 452.1 36.1846 451.347 36.7705C450.595 37.3563 450.194 38.128 450.144 39.0854Z" fill="#5930FF"/>
</svg>
