<svg width="544" height="61" viewBox="0 0 544 61" fill="none" xmlns="http://www.w3.org/2000/svg">
<path d="M22.1081 61L26.5991 60.759L26.1685 52.3458L23.1868 52.5058L22.0217 29.7461L17.5306 29.987L18.6958 52.7467L5.68842 53.4446L4.49107 30.0553L0 30.2963L1.40634 57.7682L21.8864 56.6694L22.1081 61Z" fill="#5930FF"/>
<path d="M38.5382 56.3499C40.4763 56.2459 42.2206 55.6422 43.7711 54.5387C45.3334 53.4218 46.4519 51.908 47.1264 49.997L42.6209 48.8614C41.8267 50.868 40.3053 51.9317 38.0566 52.0523C36.5285 52.1343 35.3004 51.7474 34.3721 50.8917C33.4431 50.0233 32.8481 48.7417 32.5869 47.0467L47.1596 46.2649C47.2066 43.7754 46.8294 41.6404 46.0282 39.8596C45.2269 38.0789 44.0679 36.7318 42.5512 35.8184C41.0469 34.9044 39.2511 34.5033 37.164 34.6153C35.1887 34.7213 33.4728 35.2725 32.0165 36.2688C30.5595 37.2525 29.4512 38.6001 28.6917 40.3115C27.9322 42.0229 27.6101 44.0042 27.7253 46.2554C27.8321 48.3412 28.3551 50.1624 29.2944 51.7189C30.246 53.2748 31.5152 54.4629 33.102 55.2833C34.6887 56.1036 36.5008 56.4592 38.5382 56.3499ZM37.5564 38.6307C38.9478 38.556 40.0355 38.8739 40.8193 39.5843C41.6149 40.2813 42.1534 41.4321 42.4349 43.0367L32.521 43.5686C32.8963 40.4366 34.5748 38.7907 37.5564 38.6307Z" fill="#5930FF"/>
<path d="M51.7422 55.0675L56.2333 54.8266L55.8153 46.6613L64.8533 46.1764L65.2713 54.3417L69.7624 54.1007L68.7077 33.4968L64.2166 33.7378L64.6326 41.8649L55.5946 42.3498L55.1785 34.2227L50.6875 34.4636L51.7422 55.0675Z" fill="#5930FF"/>
<path d="M80.6214 54.092C82.224 54.006 83.5707 53.6659 84.6614 53.0718C85.764 52.4642 86.7146 51.5651 87.5132 50.3745L87.6548 53.1407L91.5868 52.9298L90.9393 40.2813C90.8937 39.391 90.8145 38.5726 90.7015 37.8263C90.5879 37.0671 90.3324 36.3348 89.935 35.6292C89.2069 34.3036 88.1443 33.3786 86.7471 32.8542C85.3623 32.3291 83.7755 32.1145 81.9865 32.2105C79.626 32.3371 77.7709 32.9659 76.4211 34.0969C75.0713 35.2278 74.1925 36.6778 73.7848 38.4469L77.9519 39.5433C78.2333 38.4697 78.7853 37.694 79.608 37.2163C80.4306 36.7385 81.2954 36.4753 82.2023 36.4266C83.5689 36.3533 84.5898 36.5855 85.2652 37.1232C85.9398 37.6481 86.3509 38.4997 86.4984 39.6778C84.748 40.0396 83.1214 40.3883 81.6188 40.7239C80.1279 41.0463 78.8636 41.4138 77.8259 41.8266C76.2643 42.4715 75.1434 43.3287 74.4632 44.3982C73.7823 45.455 73.4802 46.7338 73.5571 48.2346C73.615 49.3666 73.9227 50.3894 74.4803 51.3033C75.0503 52.2164 75.853 52.9322 76.8886 53.4505C77.9236 53.9562 79.1678 54.17 80.6214 54.092ZM81.3283 50.3811C80.2723 50.4378 79.4521 50.2331 78.8677 49.767C78.2957 49.3004 77.9904 48.6918 77.952 47.9414C77.9175 47.2673 78.1007 46.7091 78.5016 46.2667C78.915 45.8237 79.4993 45.4353 80.2545 45.1014C80.9503 44.8218 81.7906 44.5663 82.7753 44.3349C83.7594 44.0908 85.0463 43.7985 86.6359 43.4582C86.6482 43.9422 86.6448 44.4844 86.6257 45.0848C86.606 45.6725 86.515 46.2067 86.3527 46.6872C86.2277 47.1658 85.9615 47.6839 85.554 48.2414C85.159 48.7982 84.6106 49.2804 83.9089 49.6879C83.2073 50.0954 82.3471 50.3264 81.3283 50.3811Z" fill="#5930FF"/>
<path d="M103.862 52.2712L113.758 51.7403C114.379 51.7069 114.986 51.6488 115.58 51.566C116.173 51.4704 116.696 51.3467 117.149 51.1948C118.385 50.7587 119.302 50.0527 119.9 49.0768C120.51 48.0876 120.779 46.8999 120.708 45.5136C120.645 44.2926 120.361 43.3577 119.854 42.709C119.36 42.0596 118.763 41.5815 118.062 41.2747C117.641 41.0932 117.174 40.9716 116.66 40.9099C117.089 40.7594 117.517 40.4814 117.944 40.0758C118.373 39.683 118.709 39.1931 118.953 38.6061C119.197 38.0191 119.296 37.2868 119.251 36.4093C119.175 34.9212 118.743 33.7775 117.955 32.978C117.166 32.1659 116.279 31.6396 115.295 31.399C114.879 31.3065 114.384 31.2375 113.808 31.1918C113.233 31.1462 112.616 31.141 111.958 31.1764L102.808 31.6673L103.862 52.2712ZM107.79 39.932L107.539 35.029L111.173 34.834C111.297 34.8274 111.577 34.8251 112.014 34.8272C112.462 34.8159 112.844 34.8592 113.16 34.957C113.64 35.0843 113.996 35.3457 114.228 35.7414C114.472 36.1364 114.608 36.5883 114.634 37.097C114.659 37.5803 114.582 38.0244 114.403 38.4294C114.224 38.8216 113.94 39.1174 113.551 39.3168C113.296 39.4452 112.984 39.5449 112.614 39.6158C112.255 39.6733 111.89 39.712 111.517 39.732L107.79 39.932ZM108.228 48.4788L107.975 43.5376L112.913 43.2727C113.099 43.2627 113.336 43.2627 113.623 43.2728C113.922 43.2696 114.198 43.3121 114.452 43.4006C114.881 43.5051 115.254 43.7338 115.571 44.0866C115.9 44.4388 116.081 44.9328 116.114 45.5687C116.137 46.0266 116.054 46.4711 115.864 46.9021C115.687 47.3325 115.379 47.6423 114.94 47.8317C114.696 47.934 114.421 48.019 114.113 48.0865C113.805 48.154 113.52 48.1948 113.259 48.2088L108.228 48.4788Z" fill="#5930FF"/>
<path d="M130.376 51.4226C131.978 51.3366 133.325 50.9965 134.416 50.4023C135.518 49.7948 136.469 48.8957 137.268 47.705L137.409 50.4713L141.341 50.2603L140.694 37.6118C140.648 36.7215 140.569 35.9032 140.456 35.1568C140.342 34.3977 140.087 33.6653 139.689 32.9597C138.961 31.6342 137.899 30.7092 136.501 30.1847C135.117 29.6596 133.53 29.445 131.741 29.541C129.38 29.6677 127.525 30.2965 126.175 31.4274C124.826 32.5584 123.947 34.0084 123.539 35.7775L127.706 36.8739C127.988 35.8003 128.54 35.0246 129.362 34.5468C130.185 34.0691 131.05 33.8059 131.957 33.7572C133.323 33.6839 134.344 33.9161 135.02 34.4537C135.694 34.9787 136.105 35.8302 136.253 37.0084C134.502 37.3701 132.876 37.7188 131.373 38.0545C129.882 38.3768 128.618 38.7444 127.58 39.1571C126.019 39.8021 124.898 40.6593 124.218 41.7288C123.537 42.7856 123.235 44.0644 123.311 45.5652C123.369 46.6971 123.677 47.72 124.235 48.6338C124.805 49.547 125.607 50.2628 126.643 50.7811C127.678 51.2867 128.922 51.5005 130.376 51.4226ZM131.083 47.7117C130.027 47.7683 129.207 47.5636 128.622 47.0976C128.05 46.6309 127.745 46.0224 127.706 45.272C127.672 44.5979 127.855 44.0397 128.256 43.5973C128.669 43.1543 129.254 42.7658 130.009 42.432C130.705 42.1523 131.545 41.8968 132.53 41.6654C133.514 41.4213 134.801 41.1291 136.39 40.7888C136.403 41.2727 136.399 41.8149 136.38 42.4154C136.36 43.0031 136.269 43.5372 136.107 44.0178C135.982 44.4964 135.716 45.0144 135.308 45.5719C134.913 46.1288 134.365 46.6109 133.663 47.0184C132.962 47.4259 132.101 47.657 131.083 47.7117Z" fill="#5930FF"/>
<path d="M154.962 50.1035C157.211 49.9828 159.083 49.3212 160.578 48.1187C162.073 46.9034 163.078 45.2298 163.591 43.098L158.953 42.2947C158.66 43.369 158.179 44.2046 157.512 44.8015C156.858 45.3978 155.934 45.7279 154.741 45.7919C153.052 45.8826 151.747 45.3467 150.828 44.1845C149.922 43.0216 149.412 41.4611 149.299 39.5031C149.215 37.6074 149.545 36.021 150.289 34.744C151.045 33.4536 152.305 32.7611 154.069 32.6665C155.1 32.6111 156.036 32.8734 156.875 33.4533C157.714 34.0205 158.336 34.848 158.74 35.9358L163.149 34.4558C162.573 32.4462 161.46 30.899 159.809 29.8142C158.159 28.7167 156.19 28.2293 153.904 28.3519C151.867 28.4612 150.133 29.0261 148.703 30.0466C147.272 31.0544 146.195 32.4003 145.471 34.0843C144.76 35.7549 144.452 37.6462 144.547 39.7581C144.666 41.8305 145.152 43.6664 146.006 45.2658C146.873 46.8645 148.064 48.1014 149.579 48.9767C151.093 49.8392 152.887 50.2148 154.962 50.1035Z" fill="#5930FF"/>
<path d="M180.142 48.1786L184.633 47.9376L183.787 31.4164L190.515 31.0554L190.306 26.9728L172.36 27.9356L172.569 32.0183L179.296 31.6573L180.142 48.1786Z" fill="#5930FF"/>
<path d="M203.446 47.5022C205.459 47.3942 207.193 46.842 208.649 45.8456C210.105 44.8365 211.207 43.4957 211.956 41.8231C212.717 40.1371 213.043 38.2257 212.934 36.089C212.825 33.965 212.313 32.1114 211.397 30.5281C210.481 28.932 209.247 27.7101 207.696 26.8623C206.146 26.0146 204.358 25.645 202.333 25.7536C200.357 25.8596 198.641 26.4108 197.185 27.4072C195.729 28.4035 194.62 29.7384 193.858 31.4117C193.097 33.085 192.772 35.0027 192.882 37.1648C192.991 39.2888 193.497 41.1491 194.401 42.7458C195.317 44.3291 196.55 45.5447 198.101 46.3925C199.652 47.2403 201.433 47.6102 203.446 47.5022ZM203.225 43.1906C201.498 43.2833 200.157 42.7622 199.202 41.6274C198.259 40.4791 197.736 38.9066 197.634 36.9098C197.535 34.9639 197.876 33.3642 198.659 32.1106C199.454 30.8436 200.752 30.1618 202.553 30.0652C204.317 29.9705 205.671 30.4973 206.614 31.6455C207.557 32.781 208.079 34.3472 208.182 36.344C208.281 38.2772 207.92 39.8779 207.101 41.1462C206.294 42.4138 205.002 43.0953 203.225 43.1906Z" fill="#5930FF"/>
<path d="M229.288 45.5418L233.798 45.2998L232.743 24.6959L228.234 24.9379L228.72 34.4386C228.267 34.8327 227.705 35.169 227.034 35.4473C226.363 35.7256 225.58 35.8887 224.686 35.9367C223.53 35.9987 222.63 35.8111 221.985 35.3738C221.339 34.9366 220.873 34.2155 220.585 33.2107C220.434 32.6959 220.332 32.1721 220.28 31.6393C220.24 31.0931 220.212 30.6737 220.197 30.3811L219.941 25.3828L215.394 25.6268L215.65 30.6251C215.668 30.9812 215.711 31.5783 215.779 32.4164C215.847 33.2545 215.982 34.0635 216.183 34.8434C216.636 36.63 217.502 37.9737 218.782 38.8743C220.073 39.7615 221.756 40.1495 223.831 40.0382C225.806 39.9322 227.507 39.4583 228.934 38.6166L229.288 45.5418Z" fill="#5930FF"/>
<path d="M238.967 45.0225L243.458 44.7815L243.04 36.6163L252.078 36.1314L252.496 44.2966L256.987 44.0557L255.933 23.4518L251.442 23.6927L251.858 31.8198L242.82 32.3047L242.404 24.1776L237.913 24.4186L238.967 45.0225Z" fill="#5930FF"/>
<path d="M271.108 43.872C273.12 43.764 274.855 43.2118 276.311 42.2154C277.767 41.2063 278.869 39.8655 279.618 38.1929C280.379 36.5068 280.705 34.5955 280.595 32.4588C280.487 30.3348 279.974 28.4812 279.059 26.8979C278.142 25.3018 276.909 24.0799 275.358 23.2321C273.807 22.3843 272.019 22.0148 269.994 22.1234C268.019 22.2294 266.303 22.7806 264.847 23.777C263.39 24.7733 262.281 26.1082 261.52 27.7815C260.759 29.4548 260.433 31.3725 260.544 33.5346C260.653 35.6586 261.159 37.5189 262.063 39.1156C262.979 40.6989 264.212 41.9145 265.763 42.7623C267.313 43.6101 269.095 43.98 271.108 43.872ZM270.887 39.5604C269.16 39.6531 267.819 39.132 266.864 37.9972C265.921 36.8489 265.398 35.2764 265.296 33.2796C265.196 31.3337 265.538 29.734 266.321 28.4804C267.115 27.2134 268.414 26.5316 270.215 26.435C271.979 26.3403 273.333 26.8671 274.276 28.0153C275.219 29.1508 275.741 30.717 275.843 32.7137C275.942 34.647 275.582 36.2477 274.762 37.516C273.955 38.7836 272.663 39.4651 270.887 39.5604Z" fill="#5930FF"/>
<path d="M301.608 42.2356C303.621 42.1276 305.355 41.5754 306.812 40.579C308.267 39.5699 309.37 38.2291 310.119 36.5564C310.879 34.8704 311.205 32.9591 311.096 30.8224C310.987 28.6984 310.475 26.8448 309.559 25.2614C308.643 23.6654 307.409 22.4435 305.858 21.5957C304.308 20.7479 302.52 20.3784 300.495 20.487C298.519 20.593 296.804 21.1442 295.347 22.1405C293.891 23.1369 292.782 24.4718 292.02 26.145C291.259 27.8183 290.934 29.736 291.044 31.8982C291.153 34.0222 291.659 35.8825 292.563 37.4792C293.479 39.0625 294.712 40.278 296.263 41.1258C297.814 41.9736 299.595 42.3435 301.608 42.2356ZM301.387 37.924C299.66 38.0166 298.32 37.4956 297.365 36.3607C296.421 35.2125 295.899 33.64 295.796 31.6432C295.697 29.6973 296.038 28.0976 296.821 26.844C297.616 25.577 298.914 24.8952 300.715 24.7986C302.48 24.7039 303.833 25.2307 304.777 26.3789C305.719 27.5144 306.242 29.0805 306.344 31.0773C306.443 33.0105 306.082 34.6113 305.263 35.8796C304.456 37.1472 303.164 37.8287 301.387 37.924Z" fill="#5930FF"/>
<path d="M324.146 41.0646C326.085 40.9733 327.766 40.4687 329.189 39.5506C330.624 38.6319 331.719 37.3871 332.473 35.8162C333.227 34.2326 333.552 32.4297 333.448 30.4074C333.354 28.576 332.922 26.9413 332.151 25.5032C331.392 24.0646 330.351 22.9471 329.027 22.1509C327.703 21.3547 326.146 21.0046 324.357 21.1006C323.177 21.1639 322.022 21.4682 320.891 22.0135C319.76 22.5461 318.839 23.4181 318.129 24.6295C318.156 23.4675 318.38 22.3587 318.799 21.3032C319.218 20.2349 319.86 19.3906 320.725 18.7703C321.35 18.3159 322.097 17.957 322.968 17.6934C323.839 17.4299 324.756 17.2149 325.72 17.0484C326.695 16.8813 327.634 16.7289 328.536 16.5912C329.451 16.4402 330.251 16.2569 330.938 16.0415L330.32 12C328.869 12.3712 327.408 12.6791 325.938 12.9238C324.481 13.1677 323.09 13.4911 321.765 13.8937C320.44 14.2964 319.257 14.9146 318.216 15.7485C317.509 16.2965 316.858 16.9628 316.263 17.7471C315.68 18.5308 315.225 19.3842 314.899 20.3072C314.583 21.2041 314.347 22.3009 314.189 23.5974C314.043 24.8806 313.973 26.1916 313.979 27.5303C313.985 28.8691 314.054 30.077 314.183 31.1541C314.582 34.321 315.618 36.797 317.292 38.582C318.977 40.3535 321.262 41.1811 324.146 41.0646ZM324.13 36.742C322.565 36.826 321.335 36.401 320.44 35.467C319.545 34.533 319.052 33.1694 318.96 31.3761C318.871 29.6337 319.216 28.2377 319.997 27.1883C320.778 26.1389 321.964 25.5715 323.554 25.4862C325.119 25.4022 326.35 25.84 327.246 26.7994C328.155 27.7582 328.654 29.1088 328.743 30.8512C328.831 32.5555 328.484 33.945 327.705 35.0199C326.937 36.0813 325.745 36.6554 324.13 36.742Z" fill="#5930FF"/>
<path d="M338.472 48.8663L343 48.6233L342.478 38.4168C343.187 38.8888 343.977 39.2418 344.849 39.4756C345.733 39.7215 346.698 39.8164 347.741 39.7604C349.605 39.6604 351.195 39.0968 352.513 38.0696C353.843 37.0418 354.845 35.6872 355.519 34.0058C356.193 32.3245 356.477 30.4536 356.372 28.3932C356.265 26.3074 355.784 24.4648 354.93 22.8654C354.088 21.2654 352.941 20.0325 351.489 19.1666C350.037 18.3008 348.361 17.9189 346.46 18.0209C345.317 18.0822 344.289 18.3159 343.375 18.722C342.462 19.1281 341.668 19.6808 340.994 20.3802L340.917 18.8921L336.948 19.1051L338.472 48.8663ZM346.841 35.6766C345.039 35.7733 343.715 35.2194 342.869 34.015C342.022 32.7978 341.547 31.1909 341.445 29.1941C341.342 27.1846 341.644 25.5359 342.35 24.2482C343.069 22.9598 344.286 22.2696 346 22.1776C347.205 22.113 348.209 22.3652 349.01 22.9344C349.823 23.4902 350.443 24.2731 350.868 25.2833C351.305 26.2802 351.556 27.4018 351.62 28.6482C351.684 29.9073 351.556 31.0556 351.235 32.0931C350.927 33.1299 350.41 33.9739 349.683 34.625C348.956 35.2634 348.009 35.614 346.841 35.6766Z" fill="#5930FF"/>
<path d="M366.664 38.7452C368.266 38.6592 369.613 38.3191 370.704 37.7249C371.806 37.1174 372.757 36.2183 373.556 35.0276L373.697 37.7939L377.629 37.5829L376.982 24.9344C376.936 24.0442 376.857 23.2258 376.744 22.4794C376.63 21.7203 376.375 20.988 375.977 20.2823C375.249 18.9568 374.187 18.0318 372.789 17.5073C371.405 16.9822 369.818 16.7677 368.029 16.8636C365.668 16.9903 363.813 17.6191 362.463 18.75C361.114 19.881 360.235 21.331 359.827 23.1001L363.994 24.1965C364.276 23.1229 364.828 22.3472 365.65 21.8694C366.473 21.3917 367.338 21.1285 368.245 21.0798C369.611 21.0065 370.632 21.2387 371.307 21.7763C371.982 22.3013 372.393 23.1528 372.541 24.331C370.79 24.6927 369.164 25.0414 367.661 25.3771C366.17 25.6994 364.906 26.067 363.868 26.4797C362.307 27.1247 361.186 27.9819 360.505 29.0514C359.825 30.1082 359.523 31.387 359.599 32.8878C359.657 34.0197 359.965 35.0426 360.523 35.9565C361.093 36.8696 361.895 37.5854 362.931 38.1037C363.966 38.6093 365.21 38.8232 366.664 38.7452ZM367.371 35.0343C366.315 35.0909 365.494 34.8862 364.91 34.4202C364.338 33.9535 364.033 33.345 363.994 32.5946C363.96 31.9205 364.143 31.3623 364.544 30.9199C364.957 30.4769 365.542 30.0884 366.297 29.7546C366.993 29.4749 367.833 29.2194 368.818 28.988C369.802 28.7439 371.089 28.4517 372.678 28.1114C372.691 28.5953 372.687 29.1375 372.668 29.738C372.648 30.3257 372.557 30.8598 372.395 31.3404C372.27 31.819 372.004 32.337 371.596 32.8945C371.201 33.4514 370.653 33.9335 369.951 34.341C369.25 34.7485 368.389 34.9796 367.371 35.0343Z" fill="#5930FF"/>
<path d="M381.224 41.9813L385.454 41.7543L385.22 37.1757L398.116 36.4838L398.35 41.0624L402.599 40.8345L402.18 32.6502L400.149 32.7591L399.278 15.7609L384.296 16.5648C384.315 18.8849 384.307 21.0343 384.271 23.013C384.234 24.9789 384.135 26.808 383.972 28.5002C383.795 30.3972 383.49 31.7399 383.057 32.5283C382.637 33.3161 381.886 33.739 380.805 33.797L381.224 41.9813ZM386.824 33.474C387.283 32.9393 387.601 32.3292 387.777 31.6438C387.953 30.9457 388.076 30.0527 388.145 28.965C388.256 27.7347 388.326 26.3089 388.355 24.6877C388.397 23.0658 388.416 21.4897 388.412 19.9595L394.991 19.6066L395.676 32.9991L386.824 33.474Z" fill="#5930FF"/>
<path d="M409.035 45.0804L413.247 44.8544L422.942 14.4913L418.451 14.7323L413.745 29.7723L407.363 15.3272L402.685 15.5782L411.876 35.5925L409.035 45.0804Z" fill="#5930FF"/>
<path d="M435.955 35.0275C437.893 34.9236 439.637 34.3198 441.188 33.2164C442.75 32.0995 443.868 30.5856 444.543 28.6747L440.037 27.5391C439.243 29.5457 437.722 30.6093 435.473 30.73C433.945 30.812 432.717 30.4251 431.789 29.5694C430.86 28.701 430.265 27.4194 430.003 25.7244L444.576 24.9426C444.623 22.4531 444.246 20.318 443.445 18.5373C442.643 16.7566 441.484 15.4095 439.968 14.4961C438.463 13.582 436.668 13.181 434.581 13.293C432.605 13.399 430.889 13.9502 429.433 14.9465C427.976 15.9302 426.868 17.2777 426.108 18.9892C425.349 20.7006 425.027 22.6819 425.142 24.9331C425.249 27.0189 425.772 28.8401 426.711 30.3966C427.663 31.9525 428.932 33.1406 430.518 33.961C432.105 34.7813 433.917 35.1369 435.955 35.0275ZM434.973 17.3084C436.364 17.2337 437.452 17.5516 438.236 18.262C439.031 18.959 439.57 20.1098 439.851 21.7144L429.937 22.2463C430.313 19.1143 431.991 17.4684 434.973 17.3084Z" fill="#5930FF"/>
<path d="M453.627 33.5055L458.118 33.2645L457.273 16.7432L464 16.3823L463.791 12.2997L445.845 13.2625L446.054 17.3451L452.782 16.9842L453.627 33.5055Z" fill="#5930FF"/>
<path d="M509.178 43.6624C506.975 41.1588 504.772 38.5551 503.37 35.4506C501.968 32.1459 501.567 28.3405 502.268 24.7353C502.969 21.1302 504.572 17.7253 506.875 14.8212C506.675 17.3248 507.576 19.9285 509.278 21.8312C508.277 17.0244 509.879 11.8169 513.084 8.0115C516.288 4.2061 520.695 1.7024 525.301 0C522.998 2.40343 522.698 6.20883 523.599 9.41347C524.5 12.618 526.403 15.4221 528.105 18.3262C529.808 21.2303 531.41 24.2346 531.51 27.5393C532.411 25.8369 533.413 24.1344 534.014 22.2317C534.615 20.329 534.915 18.3262 534.414 16.4234C536.217 18.6266 537.218 20.8297 537.719 23.6337C538.22 26.4377 538.12 29.3419 537.819 32.1459C537.419 35.2504 536.618 38.4549 534.915 41.0586C532.912 44.1631 529.708 46.3661 526.203 47.5679C519.994 48.6695 513.885 47.7682 509.178 43.6624Z" fill="#FF4222"/>
<path d="M516.789 47.3674C525.001 50.5721 533.112 40.8582 528.606 33.3475C528.606 33.2473 528.506 33.2473 528.506 33.1472C528.906 37.253 527.905 40.2573 526.002 41.9598C527.004 39.5564 526.303 36.7523 525.101 34.3489C523.899 32.0457 522.197 29.9427 520.895 27.7395C519.593 25.4362 518.592 22.8324 519.192 20.2288C516.789 22.0313 515.087 24.7352 514.386 27.6393C513.685 30.5434 514.085 33.7481 515.387 36.4519C513.885 35.3504 512.783 33.5478 512.683 31.6451C511.081 33.5478 510.08 36.0513 510.18 38.5549C510.18 42.4605 513.284 45.9655 516.789 47.3674Z" fill="#FFD058"/>
</svg>
