<svg width="290" height="79" viewBox="0 0 290 79" fill="none" xmlns="http://www.w3.org/2000/svg">
<path d="M8.78545 29.1082C7.31666 27.4392 5.84794 25.7034 4.91323 23.6337C3.97858 21.4306 3.71151 18.8937 4.17887 16.4902C4.64622 14.0868 5.71437 11.8169 7.24994 9.8808C7.11644 11.5499 7.7173 13.2857 8.85223 14.5542C8.18459 11.3496 9.2528 7.87794 11.3892 5.341C13.5255 2.80407 16.4631 1.13493 19.5341 0C17.9986 1.60229 17.7983 4.13922 18.3992 6.27565C19 8.41201 20.2685 10.2814 21.4035 12.2174C22.5384 14.1535 23.6066 16.1564 23.6734 18.3595C24.2742 17.2246 24.9419 16.0896 25.3425 14.8212C25.743 13.5527 25.9433 12.2174 25.6095 10.9489C26.8112 12.4177 27.4789 13.8865 27.8127 15.7558C28.1465 17.6252 28.0797 19.5612 27.8795 21.4306C27.6124 23.5002 27.0783 25.6366 25.9434 27.3724C24.6082 29.442 22.4717 30.9108 20.1351 31.7119C15.9957 32.4463 11.9232 31.8455 8.78545 29.1082Z" fill="#FF4222"/>
<path d="M13.8594 31.5783C19.3339 33.7147 24.7416 27.2388 21.7373 22.2316C21.7373 22.1649 21.6705 22.1649 21.6705 22.0981C21.9376 24.8354 21.2699 26.8382 20.0014 27.9732C20.6691 26.3709 20.2017 24.5016 19.4006 22.8993C18.5994 21.3638 17.4645 19.9618 16.5966 18.493C15.7286 16.9575 15.0611 15.2216 15.4616 13.4858C13.8594 14.6876 12.7244 16.4901 12.2571 18.4262C11.7897 20.3623 12.0568 22.4987 12.9247 24.3013C11.9233 23.5669 11.1889 22.3652 11.1221 21.0967C10.0539 22.3652 9.38634 24.0342 9.45306 25.7033C9.45313 28.307 11.5227 30.6436 13.8594 31.5783Z" fill="#FFD058"/>
<path d="M13.8175 79L16.6245 78.8476L16.3553 73.5249L14.4918 73.6261L13.7636 59.2271L10.9566 59.3796L11.6848 73.7785L3.55526 74.22L2.80692 59.4228L0 59.5752L0.878964 76.9554L13.679 76.2602L13.8175 79Z" fill="#5930FF"/>
<path d="M24.0864 76.0581C25.2977 75.9923 26.3879 75.6103 27.357 74.9122C28.3334 74.2057 29.0324 73.2479 29.454 72.0389L26.6381 71.3205C26.1417 72.59 25.1908 73.2629 23.7854 73.3392C22.8303 73.3911 22.0627 73.1463 21.4825 72.605C20.902 72.0556 20.53 71.2447 20.3668 70.1724L29.4747 69.6778C29.5041 68.1028 29.2684 66.7521 28.7676 65.6255C28.2668 64.4989 27.5425 63.6466 26.5945 63.0688C25.6543 62.4905 24.532 62.2368 23.2275 62.3076C21.9929 62.3747 20.9205 62.7234 20.0103 63.3538C19.0997 63.9761 18.407 64.8286 17.9323 65.9114C17.4576 66.9941 17.2563 68.2476 17.3283 69.6718C17.3951 70.9914 17.7219 72.1436 18.309 73.1283C18.9038 74.1126 19.697 74.8643 20.6887 75.3833C21.6804 75.9023 22.813 76.1272 24.0864 76.0581ZM23.4728 64.848C24.3424 64.8008 25.0222 65.0019 25.512 65.4513C26.0093 65.8923 26.3459 66.6203 26.5218 67.6355L20.3256 67.972C20.5602 65.9905 21.6092 64.9492 23.4728 64.848Z" fill="#5930FF"/>
<path d="M32.3389 75.2468L35.1458 75.0944L34.8846 69.9286L40.5333 69.6218L40.7946 74.7876L43.6015 74.6351L42.9423 61.6L40.1354 61.7525L40.3954 66.8941L34.7466 67.2009L34.4866 62.0592L31.6797 62.2117L32.3389 75.2468Z" fill="#5930FF"/>
<path d="M50.3884 74.6296C51.39 74.5752 52.2317 74.3601 52.9134 73.9842C53.6025 73.5998 54.1966 73.031 54.6957 72.2777L54.7842 74.0278L57.2418 73.8943L56.8371 65.8922C56.8086 65.329 56.759 64.8113 56.6884 64.3391C56.6174 63.8588 56.4578 63.3955 56.2094 62.9491C55.7543 62.1104 55.0902 61.5252 54.2169 61.1935C53.3515 60.8612 52.3597 60.7255 51.2416 60.7862C49.7663 60.8663 48.6068 61.2641 47.7632 61.9796C46.9196 62.6951 46.3703 63.6125 46.1155 64.7317L48.7199 65.4254C48.8958 64.7461 49.2408 64.2554 49.755 63.9531C50.2691 63.6509 50.8096 63.4844 51.3765 63.4536C52.2306 63.4072 52.8687 63.5541 53.2907 63.8942C53.7124 64.2264 53.9693 64.7651 54.0615 65.5105C52.9675 65.7393 51.9509 65.9599 51.0117 66.1723C50.08 66.3762 49.2898 66.6087 48.6412 66.8699C47.6652 67.2779 46.9646 67.8202 46.5395 68.4968C46.1139 69.1654 45.9251 69.9745 45.9732 70.9239C46.0094 71.6401 46.2017 72.2872 46.5502 72.8653C46.9064 73.4431 47.4081 73.8959 48.0554 74.2238C48.7022 74.5437 49.4799 74.679 50.3884 74.6296ZM50.8302 72.2819C50.1702 72.3178 49.6576 72.1883 49.2923 71.8934C48.9348 71.5982 48.744 71.2132 48.72 70.7384C48.6984 70.312 48.813 69.9588 49.0635 69.679C49.3219 69.3987 49.687 69.1529 50.1591 68.9417C50.5939 68.7648 51.1191 68.6031 51.7346 68.4568C52.3497 68.3023 53.1539 68.1174 54.1474 67.9021C54.1551 68.2083 54.153 68.5513 54.1411 68.9312C54.1287 69.303 54.0719 69.6409 53.9705 69.945C53.8923 70.2478 53.7259 70.5755 53.4713 70.9282C53.2244 71.2805 52.8816 71.5855 52.4431 71.8433C52.0045 72.1011 51.4669 72.2473 50.8302 72.2819Z" fill="#5930FF"/>
<path d="M64.914 73.4777L71.0986 73.1418C71.4868 73.1207 71.8664 73.084 72.2375 73.0315C72.6082 72.9711 72.9351 72.8928 73.2184 72.7967C73.9908 72.5208 74.5638 72.0741 74.9375 71.4568C75.3185 70.8309 75.4868 70.0795 75.4425 69.2025C75.4034 68.43 75.2255 67.8386 74.9089 67.4281C74.6001 67.0173 74.2266 66.7148 73.7886 66.5208C73.5258 66.4059 73.2338 66.329 72.9127 66.29C73.1803 66.1947 73.4478 66.0188 73.7152 65.7623C73.9829 65.5137 74.193 65.2038 74.3455 64.8324C74.498 64.4611 74.5602 63.9978 74.5322 63.4426C74.4846 62.5012 74.2144 61.7776 73.7217 61.2718C73.2285 60.758 72.6744 60.425 72.0594 60.2728C71.7995 60.2143 71.4898 60.1707 71.1302 60.1418C70.7706 60.1129 70.385 60.1096 69.9734 60.132L64.2548 60.4426L64.914 73.4777ZM67.3689 65.6712L67.212 62.5694L69.4832 62.446C69.5608 62.4418 69.7359 62.4404 70.0085 62.4417C70.2884 62.4346 70.5273 62.4619 70.7251 62.5238C71.025 62.6043 71.2475 62.7698 71.3925 63.0201C71.5453 63.27 71.6298 63.5558 71.6461 63.8777C71.6616 64.1835 71.6135 64.4644 71.5019 64.7206C71.3899 64.9688 71.2125 65.1559 70.9697 65.282C70.8103 65.3633 70.6149 65.4264 70.3836 65.4712C70.1597 65.5076 69.9312 65.5321 69.6983 65.5447L67.3689 65.6712ZM67.6423 71.0784L67.4843 67.9524L70.5707 67.7848C70.6872 67.7784 70.8351 67.7785 71.0145 67.7849C71.2013 67.7828 71.3739 67.8097 71.5325 67.8657C71.8005 67.9318 72.0336 68.0765 72.2318 68.2997C72.4377 68.5225 72.5508 68.835 72.5712 69.2374C72.5858 69.527 72.5339 69.8082 72.4153 70.0809C72.3045 70.3532 72.112 70.5492 71.8377 70.669C71.6853 70.7338 71.5128 70.7875 71.3203 70.8302C71.1279 70.873 70.9501 70.8988 70.787 70.9076L67.6423 71.0784Z" fill="#5930FF"/>
<path d="M81.4849 72.9408C82.4865 72.8864 83.3282 72.6713 84.0099 72.2954C84.699 71.911 85.2931 71.3422 85.7922 70.5889L85.8807 72.339L88.3383 72.2055L87.9336 64.2034C87.9051 63.6402 87.8555 63.1224 87.785 62.6502C87.7139 62.17 87.5543 61.7066 87.3059 61.2602C86.8508 60.4216 86.1867 59.8364 85.3134 59.5046C84.448 59.1724 83.4562 59.0367 82.3381 59.0974C80.8628 59.1775 79.7033 59.5753 78.8597 60.2908C78.0161 61.0063 77.4668 61.9237 77.212 63.0429L79.8164 63.7365C79.9923 63.0573 80.3373 62.5666 80.8515 62.2643C81.3656 61.9621 81.9061 61.7955 82.473 61.7648C83.3271 61.7184 83.9652 61.8653 84.3872 62.2054C84.8089 62.5375 85.0658 63.0763 85.158 63.8216C84.064 64.0505 83.0474 64.2711 82.1083 64.4835C81.1765 64.6874 80.3863 64.9199 79.7377 65.181C78.7617 65.5891 78.0611 66.1314 77.636 66.808C77.2104 67.4766 77.0216 68.2856 77.0697 69.2351C77.1059 69.9512 77.2982 70.5984 77.6467 71.1765C78.0029 71.7542 78.5047 72.2071 79.1519 72.535C79.7987 72.8549 80.5764 72.9901 81.4849 72.9408ZM81.9267 70.5931C81.2667 70.6289 80.7541 70.4994 80.3888 70.2046C80.0313 69.9094 79.8405 69.5244 79.8165 69.0496C79.795 68.6232 79.9095 68.27 80.16 67.9901C80.4184 67.7098 80.7835 67.4641 81.2556 67.2529C81.6905 67.076 82.2156 66.9143 82.8311 66.7679C83.4462 66.6135 84.2504 66.4286 85.2439 66.2133C85.2516 66.5195 85.2495 66.8625 85.2376 67.2424C85.2253 67.6142 85.1684 67.9521 85.067 68.2562C84.9888 68.5589 84.8224 68.8867 84.5678 69.2394C84.3209 69.5917 83.9781 69.8967 83.5396 70.1545C83.101 70.4123 82.5634 70.5585 81.9267 70.5931Z" fill="#5930FF"/>
<path d="M96.8512 72.1063C98.2566 72.0299 99.4267 71.6114 100.361 70.8506C101.296 70.0818 101.924 69.023 102.245 67.6742L99.3459 67.166C99.1623 67.8457 98.862 68.3743 98.4451 68.752C98.036 69.1292 97.4587 69.3381 96.7133 69.3785C95.6573 69.4359 94.8421 69.0969 94.2676 68.3616C93.701 67.6259 93.3825 66.6387 93.312 65.3999C93.2592 64.2006 93.4653 63.197 93.9306 62.3891C94.4032 61.5727 95.1907 61.1346 96.2933 61.0747C96.9378 61.0397 97.5223 61.2056 98.047 61.5725C98.5712 61.9313 98.9597 62.4548 99.2126 63.1431L101.968 62.2067C101.608 60.9353 100.912 59.9565 99.8809 59.2702C98.8492 58.5759 97.619 58.2675 96.1903 58.3451C94.9169 58.4142 93.8333 58.7716 92.9394 59.4172C92.0451 60.0548 91.3719 60.9063 90.9196 61.9717C90.4748 63.0286 90.2823 64.2251 90.342 65.5612C90.4161 66.8724 90.7201 68.0339 91.254 69.0457C91.7957 70.0571 92.5399 70.8397 93.4867 71.3934C94.433 71.9391 95.5545 72.1767 96.8512 72.1063Z" fill="#5930FF"/>
<path d="M112.589 70.8885L115.396 70.7361L114.867 60.2838L119.072 60.0555L118.941 57.4726L107.725 58.0817L107.856 60.6646L112.06 60.4363L112.589 70.8885Z" fill="#5930FF"/>
<path d="M127.154 70.4606C128.412 70.3922 129.496 70.0429 130.406 69.4125C131.316 68.7741 132.005 67.9258 132.473 66.8676C132.948 65.801 133.152 64.5918 133.084 63.24C133.016 61.8962 132.695 60.7235 132.123 59.7218C131.55 58.7121 130.779 57.9391 129.81 57.4027C128.841 56.8663 127.724 56.6325 126.458 56.7013C125.223 56.7683 124.151 57.117 123.241 57.7474C122.33 58.3778 121.637 59.2222 121.161 60.2808C120.686 61.3395 120.482 62.5527 120.551 63.9206C120.619 65.2643 120.936 66.4413 121.501 67.4514C122.073 68.4531 122.844 69.2221 123.813 69.7585C124.782 70.2949 125.896 70.5289 127.154 70.4606ZM127.016 67.7328C125.936 67.7915 125.098 67.4618 124.502 66.7438C123.912 66.0174 123.585 65.0226 123.521 63.7593C123.459 62.5282 123.673 61.5161 124.162 60.723C124.659 59.9215 125.47 59.4901 126.596 59.429C127.698 59.3691 128.544 59.7024 129.134 60.4288C129.723 61.1472 130.05 62.138 130.114 63.4013C130.175 64.6243 129.95 65.637 129.438 66.4394C128.934 67.2414 128.126 67.6725 127.016 67.7328Z" fill="#5930FF"/>
<path d="M143.305 69.2203L146.124 69.0672L145.465 56.0321L142.646 56.1852L142.95 62.1958C142.667 62.4452 142.315 62.6579 141.896 62.834C141.477 63.0101 140.988 63.1133 140.429 63.1436C139.706 63.1829 139.144 63.0642 138.74 62.7875C138.337 62.5109 138.045 62.0547 137.865 61.419C137.771 61.0933 137.708 60.762 137.675 60.4248C137.65 60.0793 137.632 59.814 137.623 59.6289L137.463 56.4667L134.621 56.621L134.781 59.7832C134.793 60.0085 134.819 60.3863 134.862 60.9165C134.904 61.4467 134.988 61.9585 135.115 62.4519C135.398 63.5823 135.939 64.4323 136.739 65.0021C137.546 65.5634 138.597 65.8089 139.894 65.7384C141.129 65.6714 142.192 65.3716 143.084 64.8391L143.305 69.2203Z" fill="#5930FF"/>
<path d="M149.355 68.8918L152.161 68.7393L151.9 63.5736L157.549 63.2668L157.81 68.4325L160.617 68.2801L159.958 55.245L157.151 55.3974L157.411 60.5391L151.762 60.8458L151.502 55.7042L148.695 55.8567L149.355 68.8918Z" fill="#5930FF"/>
<path d="M169.442 68.1639C170.7 68.0956 171.784 67.7463 172.694 67.1159C173.604 66.4775 174.293 65.6292 174.761 64.571C175.237 63.5043 175.44 62.2951 175.372 60.9433C175.304 59.5996 174.984 58.4269 174.412 57.4252C173.839 56.4155 173.068 55.6424 172.099 55.106C171.129 54.5697 170.012 54.3359 168.746 54.4046C167.512 54.4717 166.439 54.8204 165.529 55.4507C164.619 56.0811 163.926 56.9256 163.45 57.9842C162.974 59.0428 162.771 60.256 162.84 61.6239C162.908 62.9677 163.224 64.1446 163.789 65.1548C164.362 66.1565 165.132 66.9255 166.102 67.4618C167.071 67.9982 168.184 68.2322 169.442 68.1639ZM169.304 65.4362C168.225 65.4948 167.387 65.1651 166.79 64.4472C166.2 63.7208 165.874 62.7259 165.81 61.4626C165.748 60.2315 165.961 59.2195 166.45 58.4264C166.947 57.6248 167.758 57.1935 168.884 57.1323C169.987 57.0725 170.833 57.4057 171.423 58.1321C172.012 58.8505 172.338 59.8413 172.402 61.1046C172.464 62.3277 172.239 63.3404 171.727 64.1428C171.222 64.9447 170.415 65.3759 169.304 65.4362Z" fill="#5930FF"/>
<path d="M188.505 67.1286C189.763 67.0603 190.847 66.711 191.757 66.0806C192.667 65.4422 193.356 64.5939 193.824 63.5357C194.3 62.469 194.503 61.2598 194.435 59.908C194.367 58.5643 194.047 57.3916 193.474 56.3899C192.902 55.3802 192.131 54.6071 191.161 54.0708C190.192 53.5344 189.075 53.3006 187.809 53.3693C186.575 53.4364 185.502 53.7851 184.592 54.4154C183.682 55.0458 182.989 55.8903 182.513 56.9489C182.037 58.0075 181.834 59.2208 181.903 60.5886C181.971 61.9324 182.287 63.1093 182.852 64.1195C183.424 65.1212 184.195 65.8902 185.164 66.4265C186.134 66.9629 187.247 67.1969 188.505 67.1286ZM188.367 64.4009C187.288 64.4595 186.45 64.1298 185.853 63.4119C185.263 62.6855 184.937 61.6906 184.873 60.4273C184.81 59.1963 185.024 58.1842 185.513 57.3911C186.01 56.5895 186.821 56.1582 187.947 56.097C189.05 56.0372 189.896 56.3704 190.485 57.0969C191.074 57.8152 191.401 58.8061 191.465 60.0693C191.527 61.2924 191.302 62.3051 190.789 63.1075C190.285 63.9095 189.477 64.3406 188.367 64.4009Z" fill="#5930FF"/>
<path d="M202.591 66.3878C203.803 66.3301 204.854 66.0108 205.743 65.43C206.64 64.8487 207.324 64.0612 207.796 63.0674C208.267 62.0655 208.47 60.9249 208.405 59.6455C208.347 58.4869 208.076 57.4526 207.594 56.5429C207.12 55.6327 206.469 54.9257 205.642 54.422C204.814 53.9183 203.841 53.6968 202.723 53.7575C201.986 53.7976 201.264 53.9901 200.557 54.3351C199.85 54.672 199.274 55.2237 198.83 55.9901C198.848 55.2549 198.987 54.5534 199.25 53.8857C199.511 53.2098 199.912 52.6757 200.453 52.2833C200.843 51.9958 201.311 51.7687 201.855 51.602C202.4 51.4352 202.973 51.2992 203.575 51.1939C204.184 51.0882 204.771 50.9918 205.335 50.9047C205.907 50.8091 206.407 50.6932 206.836 50.5569L206.45 48C205.543 48.2348 204.63 48.4296 203.711 48.5844C202.8 48.7388 201.931 48.9433 201.103 49.1981C200.275 49.4528 199.536 49.844 198.885 50.3715C198.443 50.7182 198.036 51.1397 197.664 51.6359C197.3 52.1318 197.016 52.6716 196.812 53.2556C196.615 53.823 196.467 54.5169 196.368 55.3371C196.277 56.1489 196.233 56.9783 196.237 57.8253C196.241 58.6723 196.283 59.4365 196.365 60.1179C196.614 62.1215 197.262 63.6879 198.307 64.8172C199.361 65.938 200.789 66.4615 202.591 66.3878ZM202.581 63.6531C201.603 63.7063 200.834 63.4374 200.275 62.8465C199.716 62.2556 199.407 61.3929 199.35 60.2583C199.294 59.156 199.51 58.2729 199.998 57.6089C200.486 56.945 201.227 56.5861 202.221 56.5321C203.2 56.479 203.969 56.7559 204.529 57.3629C205.097 57.9694 205.409 58.8239 205.465 59.9263C205.519 61.0045 205.303 61.8836 204.815 62.5636C204.336 63.2351 203.591 63.5983 202.581 63.6531Z" fill="#5930FF"/>
<path d="M211.545 71.3236L214.375 71.1699L214.048 64.7126C214.492 65.0113 214.986 65.2346 215.531 65.3825C216.083 65.5381 216.686 65.5981 217.338 65.5627C218.503 65.4995 219.497 65.1429 220.321 64.493C221.152 63.8427 221.778 62.9858 222.199 61.922C222.621 60.8583 222.798 59.6747 222.732 58.3712C222.666 57.0516 222.365 55.8859 221.831 54.8741C221.305 53.8618 220.588 53.0818 219.681 52.534C218.773 51.9862 217.726 51.7446 216.538 51.8091C215.823 51.8479 215.181 51.9958 214.61 52.2527C214.039 52.5096 213.542 52.8593 213.121 53.3018L213.073 52.3603L210.593 52.4951L211.545 71.3236ZM216.775 62.9791C215.65 63.0402 214.822 62.6898 214.293 61.9278C213.764 61.1578 213.467 60.1412 213.403 58.8779C213.339 57.6066 213.527 56.5636 213.969 55.7489C214.418 54.9338 215.179 54.4971 216.25 54.4389C217.003 54.398 217.63 54.5576 218.131 54.9177C218.64 55.2693 219.027 55.7646 219.293 56.4037C219.566 57.0344 219.722 57.744 219.762 58.5325C219.803 59.3291 219.723 60.0556 219.522 60.7119C219.33 61.3679 219.006 61.9018 218.552 62.3138C218.098 62.7177 217.505 62.9394 216.775 62.9791Z" fill="#5930FF"/>
<path d="M229.165 64.9204C230.166 64.866 231.008 64.6509 231.69 64.275C232.379 63.8906 232.973 63.3218 233.472 62.5685L233.561 64.3186L236.018 64.1851L235.614 56.183C235.585 55.6198 235.535 55.102 235.465 54.6298C235.394 54.1496 235.234 53.6863 234.986 53.2398C234.531 52.4012 233.867 51.816 232.993 51.4842C232.128 51.152 231.136 51.0163 230.018 51.077C228.543 51.1571 227.383 51.5549 226.54 52.2704C225.696 52.9859 225.147 53.9033 224.892 55.0225L227.496 55.7161C227.672 55.0369 228.017 54.5462 228.531 54.2439C229.046 53.9417 229.586 53.7752 230.153 53.7444C231.007 53.698 231.645 53.8449 232.067 54.185C232.489 54.5171 232.746 55.0559 232.838 55.8012C231.744 56.0301 230.727 56.2507 229.788 56.4631C228.856 56.667 228.066 56.8995 227.418 57.1606C226.442 57.5687 225.741 58.111 225.316 58.7876C224.89 59.4562 224.702 60.2652 224.75 61.2147C224.786 61.9308 224.978 62.578 225.327 63.1561C225.683 63.7338 226.185 64.1867 226.832 64.5146C227.479 64.8345 228.256 64.9698 229.165 64.9204ZM229.607 62.5727C228.947 62.6085 228.434 62.479 228.069 62.1842C227.711 61.889 227.52 61.504 227.496 61.0292C227.475 60.6028 227.589 60.2496 227.84 59.9697C228.098 59.6895 228.464 59.4437 228.936 59.2325C229.37 59.0556 229.896 58.8939 230.511 58.7475C231.126 58.5931 231.93 58.4082 232.924 58.1929C232.932 58.4991 232.929 58.8421 232.918 59.222C232.905 59.5938 232.848 59.9317 232.747 60.2358C232.669 60.5385 232.502 60.8663 232.248 61.219C232.001 61.5713 231.658 61.8763 231.22 62.1341C230.781 62.3919 230.243 62.5381 229.607 62.5727Z" fill="#5930FF"/>
<path d="M238.265 66.9677L240.909 66.8242L240.763 63.9275L248.822 63.4898L248.969 66.3864L251.624 66.2422L251.362 61.0644L250.093 61.1333L249.549 50.3794L240.185 50.8879C240.197 52.3557 240.192 53.7156 240.169 54.9674C240.147 56.2112 240.084 57.3683 239.983 58.4389C239.872 59.639 239.682 60.4885 239.411 60.9873C239.148 61.4857 238.679 61.7532 238.003 61.7899L238.265 66.9677ZM241.765 61.5856C242.052 61.2473 242.25 60.8613 242.361 60.4277C242.471 59.986 242.547 59.4211 242.59 58.733C242.66 57.9546 242.704 57.0526 242.722 56.0269C242.748 55.0008 242.76 54.0037 242.758 53.0356L246.869 52.8123L247.298 61.2851L241.765 61.5856Z" fill="#5930FF"/>
<path d="M255.647 68.9284L258.279 68.7854L264.338 49.5762L261.532 49.7286L258.591 59.2437L254.602 50.105L251.678 50.2637L257.422 62.9259L255.647 68.9284Z" fill="#5930FF"/>
<path d="M272.472 62.5684C273.683 62.5027 274.773 62.1207 275.742 61.4226C276.719 60.716 277.418 59.7583 277.839 58.5493L275.023 57.8308C274.527 59.1003 273.576 59.7733 272.171 59.8496C271.216 59.9015 270.448 59.6567 269.868 59.1154C269.287 58.566 268.915 57.7551 268.752 56.6828L277.86 56.1882C277.889 54.6132 277.654 53.2624 277.153 52.1358C276.652 51.0092 275.928 50.157 274.98 49.5792C274.04 49.0009 272.917 48.7472 271.613 48.818C270.378 48.8851 269.306 49.2338 268.396 49.8641C267.485 50.4864 266.792 51.339 266.318 52.4217C265.843 53.5045 265.642 54.758 265.714 56.1822C265.78 57.5018 266.107 58.6539 266.694 59.6387C267.289 60.623 268.082 61.3747 269.074 61.8937C270.066 62.4127 271.198 62.6376 272.472 62.5684ZM271.858 51.3584C272.728 51.3111 273.407 51.5122 273.897 51.9617C274.395 52.4026 274.731 53.1307 274.907 54.1458L268.711 54.4823C268.945 52.5009 269.995 51.4596 271.858 51.3584Z" fill="#5930FF"/>
<path d="M283.517 61.6055L286.324 61.4531L285.795 51.0008L290 50.7725L289.869 48.1896L278.653 48.7987L278.784 51.3816L282.989 51.1533L283.517 61.6055Z" fill="#5930FF"/>
</svg>
