<svg width="728" height="97" viewBox="0 0 728 97" fill="none" xmlns="http://www.w3.org/2000/svg">
<path d="M58.4451 75L64.2235 74.6902L63.6693 63.8731L59.833 64.0788L58.334 34.8164L52.5556 35.1262L54.0547 64.3886L37.3189 65.2859L35.7784 35.214L30 35.5238L31.8095 70.8448L58.1598 69.432L58.4451 75Z" fill="#5930FF"/>
<path d="M79.5848 69.0212C82.0783 68.8876 84.3226 68.1113 86.3176 66.6926C88.3277 65.2567 89.7667 63.3102 90.6346 60.8533L84.8377 59.3932C83.8158 61.9732 81.8583 63.3407 78.9651 63.4958C76.999 63.6012 75.4188 63.1038 74.2244 62.0037C73.0292 60.8872 72.2636 59.2393 71.9275 57.0601L90.6773 56.0548C90.7377 52.8541 90.2525 50.109 89.2216 47.8195C88.1907 45.53 86.6995 43.798 84.748 42.6237C82.8124 41.4485 80.502 40.9328 77.8166 41.0768C75.2751 41.2131 73.0674 41.9217 71.1936 43.2028C69.319 44.4675 67.893 46.2001 66.9158 48.4005C65.9386 50.6009 65.5242 53.1483 65.6724 56.0427C65.8098 58.7244 66.4827 61.066 67.6912 63.0672C68.9157 65.0676 70.5487 66.5952 72.5902 67.6499C74.6318 68.7047 76.9633 69.1618 79.5848 69.0212ZM78.3215 46.2395C80.1118 46.1435 81.5111 46.5522 82.5196 47.4655C83.5433 48.3617 84.2362 49.8413 84.5983 51.9043L71.8427 52.5882C72.3256 48.5614 74.4852 46.4451 78.3215 46.2395Z" fill="#5930FF"/>
<path d="M96.5735 67.3725L102.352 67.0627L101.814 56.5646L113.443 55.9411L113.981 66.4393L119.759 66.1295L118.402 39.6388L112.623 39.9486L113.159 50.3977L101.53 51.0211L100.995 40.572L95.2164 40.8818L96.5735 67.3725Z" fill="#5930FF"/>
<path d="M133.73 66.1183C135.792 66.0077 137.525 65.5705 138.929 64.8066C140.347 64.0254 141.57 62.8694 142.598 61.3386L142.78 64.8952L147.839 64.624L147.006 48.3616C146.947 47.217 146.845 46.1648 146.7 45.2052C146.554 44.2292 146.225 43.2876 145.714 42.3803C144.777 40.6761 143.41 39.4868 141.612 38.8125C139.83 38.1374 137.789 37.8615 135.487 37.9849C132.45 38.1477 130.063 38.9562 128.326 40.4102C126.59 41.8643 125.459 43.7286 124.934 46.0032L130.296 47.4128C130.658 46.0325 131.368 45.0351 132.427 44.4209C133.485 43.8066 134.598 43.4682 135.765 43.4057C137.523 43.3114 138.837 43.6099 139.705 44.3012C140.573 44.9761 141.102 46.071 141.292 47.5858C139.04 48.0508 136.947 48.4992 135.014 48.9308C133.096 49.3452 131.469 49.8177 130.134 50.3484C128.125 51.1776 126.682 52.2798 125.807 53.6549C124.931 55.0136 124.542 56.6578 124.641 58.5874C124.716 60.0427 125.112 61.3579 125.829 62.5328C126.562 63.7069 127.595 64.6271 128.928 65.2936C130.259 65.9436 131.86 66.2186 133.73 66.1183ZM134.64 61.3471C133.281 61.42 132.226 61.1568 131.474 60.5576C130.738 59.9576 130.345 59.1752 130.296 58.2104C130.252 57.3437 130.487 56.626 131.003 56.0572C131.535 55.4876 132.287 54.9882 133.259 54.559C134.154 54.1994 135.235 53.8709 136.502 53.5734C137.768 53.2596 139.424 52.8838 141.469 52.4462C141.485 53.0685 141.481 53.7656 141.456 54.5376C141.431 55.2932 141.313 55.98 141.105 56.5979C140.944 57.2132 140.601 57.8793 140.077 58.596C139.569 59.312 138.863 59.9319 137.96 60.4558C137.058 60.9797 135.951 61.2768 134.64 61.3471Z" fill="#5930FF"/>
<path d="M163.633 63.7772L176.365 63.0946C177.164 63.0518 177.946 62.9771 178.71 62.8705C179.473 62.7476 180.146 62.5886 180.729 62.3933C182.319 61.8326 183.499 60.9249 184.268 59.6702C185.052 58.3984 185.399 56.8713 185.307 55.0889C185.227 53.519 184.861 52.3171 184.209 51.483C183.573 50.648 182.804 50.0333 181.903 49.639C181.362 49.4056 180.761 49.2493 180.099 49.1699C180.651 48.9764 181.201 48.6189 181.752 48.0975C182.303 47.5925 182.735 46.9626 183.049 46.2079C183.363 45.4532 183.491 44.5116 183.433 43.3833C183.335 41.4701 182.779 39.9996 181.765 38.9718C180.75 37.9276 179.609 37.2509 178.343 36.9416C177.808 36.8227 177.17 36.7339 176.43 36.6752C175.69 36.6165 174.896 36.6099 174.049 36.6553L162.276 37.2865L163.633 63.7772ZM168.687 47.9125L168.364 41.6087L173.04 41.358C173.199 41.3495 173.56 41.3465 174.121 41.3492C174.697 41.3347 175.189 41.3904 175.596 41.5161C176.214 41.6798 176.672 42.016 176.97 42.5247C177.285 43.0325 177.459 43.6135 177.492 44.2676C177.524 44.889 177.425 45.46 177.195 45.9806C176.965 46.4849 176.599 46.8652 176.1 47.1216C175.772 47.2867 175.369 47.4149 174.893 47.506C174.432 47.5799 173.962 47.6297 173.482 47.6554L168.687 47.9125ZM169.25 58.9013L168.924 52.5484L175.278 52.2077C175.518 52.1949 175.823 52.195 176.192 52.2079C176.576 52.2037 176.932 52.2585 177.258 52.3721C177.81 52.5065 178.29 52.8005 178.698 53.2542C179.122 53.707 179.355 54.3422 179.397 55.1598C179.427 55.7485 179.32 56.3199 179.076 56.8741C178.848 57.4275 178.451 57.8258 177.887 58.0693C177.573 58.2009 177.218 58.3101 176.822 58.3969C176.425 58.4838 176.059 58.5362 175.724 58.5542L169.25 58.9013Z" fill="#5930FF"/>
<path d="M197.746 62.6861C199.808 62.5756 201.541 62.1384 202.945 61.3744C204.363 60.5933 205.586 59.4373 206.614 57.9065L206.796 61.4631L211.855 61.1919L211.022 44.9295C210.963 43.7848 210.861 42.7327 210.716 41.773C210.57 40.7971 210.241 39.8554 209.73 38.9482C208.793 37.2439 207.426 36.0547 205.628 35.3804C203.846 34.7052 201.805 34.4293 199.503 34.5528C196.466 34.7156 194.079 35.524 192.342 36.9781C190.605 38.4322 189.475 40.2965 188.95 42.5711L194.312 43.9807C194.674 42.6003 195.384 41.603 196.443 40.9888C197.501 40.3745 198.614 40.0361 199.781 39.9735C201.539 39.8793 202.852 40.1778 203.721 40.8691C204.589 41.544 205.118 42.6389 205.308 44.1536C203.056 44.6187 200.963 45.0671 199.03 45.4987C197.112 45.913 195.485 46.3856 194.15 46.9163C192.14 47.7455 190.698 48.8476 189.823 50.2227C188.947 51.5815 188.558 53.2256 188.657 55.1552C188.732 56.6106 189.128 57.9257 189.845 59.1007C190.578 60.2747 191.611 61.195 192.944 61.8614C194.275 62.5115 195.876 62.7864 197.746 62.6861ZM198.656 57.915C197.297 57.9878 196.242 57.7247 195.49 57.1255C194.754 56.5255 194.361 55.743 194.312 54.7783C194.268 53.9116 194.503 53.1939 195.019 52.6251C195.551 52.0555 196.303 51.5561 197.274 51.1268C198.17 50.7673 199.251 50.4388 200.518 50.1413C201.784 49.8274 203.44 49.4517 205.485 49.0141C205.501 49.6364 205.496 50.3335 205.472 51.1055C205.446 51.8611 205.329 52.5479 205.121 53.1657C204.96 53.7811 204.617 54.4471 204.093 55.1639C203.585 55.8798 202.879 56.4998 201.976 57.0237C201.074 57.5476 199.967 57.8447 198.656 57.915Z" fill="#5930FF"/>
<path d="M229.38 60.9902C232.273 60.835 234.682 59.9844 236.606 58.4383C238.53 56.8758 239.822 54.7241 240.483 51.9831L234.516 50.9503C234.138 52.3315 233.519 53.4059 232.661 54.1734C231.819 54.94 230.63 55.3645 229.096 55.4467C226.922 55.5633 225.244 54.8744 224.061 53.3801C222.895 51.8849 222.239 49.8786 222.094 47.3612C221.985 44.9238 222.41 42.8842 223.367 41.2423C224.34 39.5832 225.962 38.6929 228.231 38.5712C229.558 38.5 230.761 38.8372 231.842 39.5828C232.921 40.312 233.721 41.3759 234.241 42.7746L239.914 40.8717C239.172 38.2879 237.74 36.2987 235.617 34.9039C233.493 33.4929 230.96 32.8662 228.019 33.0239C225.398 33.1644 223.167 33.8907 221.327 35.2028C219.486 36.4985 218.1 38.2289 217.169 40.394C216.253 42.542 215.857 44.9736 215.98 47.689C216.133 50.3535 216.758 52.714 217.857 54.7703C218.973 56.8257 220.505 58.4161 222.454 59.5414C224.402 60.6504 226.711 61.1333 229.38 60.9902Z" fill="#5930FF"/>
<path d="M261.777 58.5153L267.556 58.2055L266.468 36.9639L275.123 36.4998L274.854 31.2507L251.765 32.4887L252.034 37.7378L260.689 37.2737L261.777 58.5153Z" fill="#5930FF"/>
<path d="M291.761 57.6457C294.351 57.5068 296.582 56.7969 298.456 55.5158C300.329 54.2184 301.748 52.4944 302.711 50.3439C303.69 48.1762 304.109 45.7188 303.968 42.9716C303.829 40.2407 303.17 37.8575 301.991 35.8218C300.812 33.7698 299.225 32.1988 297.23 31.1087C295.235 30.0187 292.934 29.5435 290.329 29.6832C287.787 29.8195 285.58 30.5282 283.706 31.8092C281.832 33.0903 280.405 34.8065 279.426 36.9579C278.446 39.1092 278.027 41.5749 278.17 44.3547C278.309 47.0856 278.961 49.4774 280.124 51.5303C281.302 53.566 282.889 55.1288 284.884 56.2189C286.879 57.3089 289.172 57.7845 291.761 57.6457ZM291.477 52.1022C289.255 52.2213 287.53 51.5514 286.301 50.0923C285.088 48.616 284.415 46.5943 284.284 44.0269C284.155 41.525 284.595 39.4682 285.602 37.8565C286.625 36.2275 288.295 35.3509 290.613 35.2267C292.883 35.105 294.624 35.7823 295.838 37.2585C297.051 38.7184 297.723 40.7321 297.854 43.2994C297.982 45.7849 297.518 47.843 296.464 49.4737C295.425 51.1035 293.763 51.9797 291.477 52.1022Z" fill="#5930FF"/>
<path d="M325.011 55.1251L330.813 54.814L329.456 28.3233L323.654 28.6344L324.28 40.8496C323.697 41.3564 322.973 41.7887 322.11 42.1465C321.247 42.5043 320.24 42.7141 319.089 42.7758C317.603 42.8555 316.444 42.6142 315.614 42.0521C314.784 41.4899 314.183 40.5628 313.813 39.2709C313.618 38.6091 313.488 37.9356 313.421 37.2505C313.368 36.5482 313.333 36.009 313.314 35.6329L312.984 29.2065L307.134 29.5201L307.463 35.9466C307.487 36.4044 307.542 37.1721 307.629 38.2497C307.717 39.3272 307.89 40.3673 308.15 41.37C308.732 43.6672 309.847 45.3948 311.493 46.5527C313.154 47.6934 315.319 48.1922 317.989 48.0491C320.53 47.9128 322.719 47.3036 324.555 46.2213L325.011 55.1251Z" fill="#5930FF"/>
<path d="M337.464 54.4575L343.243 54.1477L342.705 43.6495L354.334 43.026L354.871 53.5242L360.65 53.2144L359.293 26.7237L353.514 27.0335L354.05 37.4826L342.421 38.1061L341.886 27.6569L336.107 27.9667L337.464 54.4575Z" fill="#5930FF"/>
<path d="M378.817 52.9783C381.407 52.8394 383.638 52.1295 385.512 50.8484C387.385 49.551 388.804 47.827 389.767 45.6765C390.746 43.5088 391.165 41.0514 391.025 38.3042C390.885 35.5733 390.226 33.1901 389.047 31.1544C387.868 29.1024 386.281 27.5313 384.286 26.4413C382.291 25.3513 379.99 24.8761 377.385 25.0158C374.843 25.1521 372.636 25.8607 370.762 27.1418C368.888 28.4229 367.461 30.1391 366.482 32.2905C365.502 34.4418 365.083 36.9075 365.226 39.6873C365.365 42.4182 366.017 44.81 367.18 46.8629C368.358 48.8986 369.945 50.4614 371.94 51.5515C373.935 52.6415 376.228 53.1171 378.817 52.9783ZM378.533 47.4348C376.311 47.5539 374.586 46.884 373.357 45.4249C372.144 43.9486 371.471 41.9269 371.34 39.3595C371.211 36.8576 371.651 34.8008 372.658 33.1891C373.681 31.5601 375.351 30.6835 377.669 30.5593C379.939 30.4376 381.68 31.1149 382.894 32.5911C384.107 34.051 384.779 36.0647 384.91 38.632C385.038 41.1175 384.574 43.1756 383.52 44.8063C382.481 46.4361 380.819 47.3123 378.533 47.4348Z" fill="#5930FF"/>
<path d="M418.06 50.8743C420.65 50.7355 422.882 50.0255 424.755 48.7444C426.628 47.447 428.047 45.7231 429.01 43.5726C429.989 41.4048 430.408 38.9474 430.268 36.2002C430.128 33.4694 429.469 31.0861 428.29 29.0504C427.111 26.9984 425.524 25.4274 423.529 24.3374C421.534 23.2473 419.233 22.7722 416.628 22.9119C414.086 23.0481 411.879 23.7568 410.005 25.0378C408.131 26.3189 406.704 28.0351 405.725 30.1865C404.745 32.3379 404.326 34.8035 404.469 37.5834C404.609 40.3142 405.26 42.7061 406.423 44.759C407.601 46.7946 409.188 48.3575 411.183 49.4475C413.179 50.5375 415.471 51.0131 418.06 50.8743ZM417.776 45.3309C415.555 45.45 413.829 44.78 412.6 43.3209C411.387 41.8447 410.714 39.8229 410.583 37.2556C410.455 34.7537 410.894 32.6969 411.901 31.0851C412.924 29.4562 414.594 28.5795 416.912 28.4553C419.182 28.3336 420.923 29.0109 422.137 30.4872C423.35 31.9471 424.022 33.9607 424.154 36.528C424.281 39.0135 423.817 41.0717 422.763 42.7023C421.724 44.3321 420.062 45.2083 417.776 45.3309Z" fill="#5930FF"/>
<path d="M447.059 49.3688C449.553 49.2514 451.716 48.6026 453.547 47.4222C455.393 46.241 456.802 44.6405 457.772 42.6208C458.742 40.5848 459.16 38.2667 459.027 35.6667C458.906 33.312 458.35 31.2102 457.358 29.3613C456.381 27.5116 455.042 26.0749 453.338 25.0512C451.635 24.0275 449.632 23.5774 447.33 23.7008C445.812 23.7822 444.325 24.1734 442.871 24.8745C441.415 25.5592 440.23 26.6804 439.316 28.2379C439.352 26.7439 439.64 25.3183 440.179 23.9612C440.718 22.5877 441.544 21.5022 442.657 20.7047C443.461 20.1205 444.423 19.659 445.543 19.3201C446.664 18.9813 447.844 18.7049 449.083 18.4909C450.338 18.276 451.546 18.08 452.707 17.903C453.884 17.7088 454.913 17.4732 455.797 17.1963L455.002 12C453.135 12.4772 451.256 12.8731 449.364 13.1877C447.489 13.5014 445.699 13.9171 443.995 14.4348C442.29 14.9525 440.768 15.7474 439.429 16.8195C438.519 17.5241 437.681 18.3807 436.916 19.3892C436.166 20.3968 435.581 21.494 435.161 22.6807C434.755 23.8339 434.451 25.244 434.247 26.911C434.06 28.5608 433.97 30.2463 433.978 31.9676C433.986 33.6889 434.073 35.2419 434.24 36.6267C434.753 40.6985 436.087 43.8819 438.24 46.1768C440.408 48.4545 443.348 49.5185 447.059 49.3688ZM447.038 43.8112C445.024 43.9192 443.442 43.3727 442.29 42.1719C441.139 40.971 440.504 39.2178 440.386 36.9121C440.271 34.6718 440.716 32.8771 441.721 31.5278C442.726 30.1786 444.251 29.4491 446.297 29.3394C448.311 29.2314 449.895 29.7942 451.048 31.0278C452.217 32.2605 452.859 33.997 452.974 36.2372C453.086 38.4284 452.64 40.215 451.637 41.597C450.649 42.9617 449.116 43.6998 447.038 43.8112Z" fill="#5930FF"/>
<path d="M465.491 59.3995L471.317 59.0871L470.645 45.9644C471.557 46.5714 472.574 47.0251 473.696 47.3258C474.834 47.6419 476.074 47.7639 477.417 47.692C479.815 47.5634 481.861 46.8388 483.557 45.5181C485.268 44.1965 486.557 42.4549 487.424 40.2932C488.291 38.1315 488.657 35.7261 488.521 33.077C488.384 30.3952 487.766 28.0262 486.666 25.9699C485.583 23.9127 484.108 22.3275 482.239 21.2143C480.371 20.101 478.214 19.61 475.769 19.7411C474.298 19.8199 472.975 20.1204 471.8 20.6426C470.624 21.1647 469.603 21.8754 468.735 22.7745L468.637 20.8613L463.53 21.1351L465.491 59.3995ZM476.258 42.4414C473.941 42.5656 472.237 41.8535 471.148 40.305C470.058 38.7401 469.447 36.674 469.316 34.1067C469.184 31.523 469.572 29.4033 470.481 27.7477C471.406 26.0912 472.971 25.2038 475.177 25.0855C476.727 25.0024 478.018 25.3267 479.05 26.0585C480.096 26.7731 480.893 27.7798 481.44 29.0786C482.003 30.3602 482.325 31.8023 482.407 33.4048C482.49 35.0237 482.325 36.5001 481.913 37.834C481.516 39.167 480.851 40.2521 479.916 41.0893C478.98 41.9101 477.761 42.3608 476.258 42.4414Z" fill="#5930FF"/>
<path d="M501.763 46.3867C503.825 46.2761 505.558 45.8389 506.962 45.0749C508.38 44.2938 509.603 43.1378 510.631 41.607L510.813 45.1636L515.872 44.8924L515.039 28.63C514.98 27.4853 514.878 26.4332 514.733 25.4735C514.587 24.4975 514.258 23.5559 513.747 22.6487C512.81 20.9444 511.443 19.7552 509.645 19.0809C507.863 18.4057 505.822 18.1298 503.52 18.2533C500.483 18.4161 498.096 19.2245 496.359 20.6786C494.622 22.1327 493.492 23.997 492.967 26.2715L498.329 27.6812C498.691 26.3008 499.401 25.3035 500.46 24.6893C501.518 24.075 502.631 23.7366 503.798 23.674C505.556 23.5798 506.869 23.8783 507.738 24.5696C508.606 25.2445 509.135 26.3394 509.325 27.8541C507.073 28.3192 504.98 28.7676 503.047 29.1992C501.129 29.6135 499.502 30.0861 498.167 30.6168C496.157 31.446 494.715 32.5481 493.84 33.9232C492.964 35.282 492.575 36.9261 492.674 38.8557C492.749 40.3111 493.145 41.6262 493.862 42.8012C494.595 43.9752 495.628 44.8955 496.961 45.5619C498.292 46.212 499.893 46.4869 501.763 46.3867ZM502.673 41.6155C501.314 41.6883 500.259 41.4252 499.507 40.826C498.771 40.226 498.378 39.4435 498.329 38.4788C498.285 37.6121 498.52 36.8944 499.036 36.3256C499.568 35.756 500.32 35.2566 501.291 34.8273C502.187 34.4678 503.268 34.1393 504.535 33.8418C505.801 33.5279 507.457 33.1522 509.502 32.7146C509.518 33.3369 509.513 34.034 509.489 34.806C509.463 35.5616 509.346 36.2484 509.138 36.8662C508.977 37.4816 508.634 38.1476 508.11 38.8644C507.602 39.5803 506.896 40.2003 505.993 40.7242C505.091 41.2481 503.984 41.5452 502.673 41.6155Z" fill="#5930FF"/>
<path d="M520.498 50.5474L525.94 50.2556L525.639 44.3687L542.231 43.4792L542.532 49.366L547.999 49.0729L547.46 38.5502L544.846 38.6903L543.727 16.8355L524.449 17.869C524.474 20.852 524.463 23.6155 524.417 26.1595C524.371 28.6872 524.243 31.0389 524.033 33.2145C523.806 35.6535 523.413 37.3798 522.856 38.3935C522.315 39.4064 521.349 39.9501 519.959 40.0247L520.498 50.5474ZM527.703 39.6094C528.293 38.9219 528.702 38.1376 528.929 37.2563C529.155 36.3587 529.313 35.2107 529.402 33.8122C529.545 32.2303 529.635 30.3972 529.673 28.3127C529.726 26.2274 529.751 24.2011 529.746 22.2336L538.21 21.7799L539.092 38.9988L527.703 39.6094Z" fill="#5930FF"/>
<path d="M556.28 54.5319L561.699 54.2414L574.173 15.2032L568.394 15.513L562.34 34.8501L554.128 16.2778L548.11 16.6005L559.935 42.3332L556.28 54.5319Z" fill="#5930FF"/>
<path d="M590.916 41.6068C593.409 41.4732 595.654 40.6969 597.649 39.2782C599.659 37.8423 601.098 35.8958 601.966 33.4389L596.169 31.9788C595.147 34.5588 593.189 35.9263 590.296 36.0814C588.33 36.1868 586.75 35.6894 585.556 34.5893C584.36 33.4728 583.595 31.8249 583.259 29.6457L602.008 28.6404C602.069 25.4397 601.584 22.6946 600.553 20.4051C599.522 18.1156 598.031 16.3836 596.079 15.2093C594.144 14.0341 591.833 13.5184 589.148 13.6624C586.606 13.7987 584.399 14.5073 582.525 15.7884C580.65 17.0531 579.224 18.7857 578.247 20.9861C577.27 23.1865 576.855 25.7339 577.004 28.6283C577.141 31.3101 577.814 33.6516 579.022 35.6528C580.247 37.6532 581.88 39.1808 583.921 40.2355C585.963 41.2903 588.294 41.7474 590.916 41.6068ZM589.653 18.8251C591.443 18.7291 592.842 19.1378 593.851 20.0511C594.874 20.9473 595.567 22.4269 595.929 24.4899L583.174 25.1738C583.657 21.147 585.816 19.0307 589.653 18.8251Z" fill="#5930FF"/>
<path d="M613.654 39.6499L619.433 39.3401L618.344 18.0985L627 17.6344L626.731 12.3853L603.641 13.6232L603.91 18.8723L612.566 18.4083L613.654 39.6499Z" fill="#5930FF"/>
<path d="M684.473 54.578C681.719 51.4485 678.965 48.1938 677.212 44.3133C675.46 40.1824 674.959 35.4256 675.835 30.9192C676.712 26.4128 678.715 22.1566 681.594 18.5265C681.343 21.656 682.47 24.9106 684.598 27.289C683.346 21.2805 685.349 14.7711 689.355 10.0144C693.36 5.25762 698.868 2.128 704.627 0C701.747 3.00429 701.372 7.76104 702.499 11.7668C703.625 15.7725 706.004 19.2776 708.132 22.9077C710.26 26.5378 712.262 30.2932 712.388 34.4241C713.514 32.2961 714.766 30.168 715.517 27.7897C716.268 25.4112 716.644 22.9077 716.018 20.5293C718.271 23.2832 719.523 26.0371 720.149 29.5421C720.775 33.0472 720.65 36.6773 720.274 40.1824C719.773 44.0629 718.772 48.0686 716.644 51.3232C714.14 55.2038 710.135 57.9577 705.753 59.4598C697.992 60.8369 690.356 59.7102 684.473 54.578Z" fill="#FF4222"/>
<path d="M693.986 59.2095C704.251 63.2153 714.39 51.0729 708.757 41.6845C708.757 41.5593 708.632 41.5593 708.632 41.4342C709.133 46.5665 707.881 50.3218 705.503 52.45C706.754 49.4457 705.878 45.9406 704.376 42.9363C702.874 40.0573 700.746 37.4285 699.118 34.6745C697.491 31.7955 696.239 28.5407 696.99 25.2861C693.986 27.5393 691.858 30.9192 690.982 34.5493C690.106 38.1795 690.606 42.1853 692.234 45.5651C690.356 44.1882 688.979 41.9349 688.854 39.5565C686.851 41.9349 685.599 45.0643 685.724 48.1938C685.725 53.0758 689.605 57.457 693.986 59.2095Z" fill="#FFD058"/>
</svg>
