<svg width="549" height="63" viewBox="0 0 549 63" fill="none" xmlns="http://www.w3.org/2000/svg">
<path d="M12.5795 0.0182872C10.4076 -0.0949564 8.39226 0.317747 6.53333 1.2564C4.67524 2.17916 3.14923 3.48567 1.95528 5.17594C0.77815 6.85115 0.13309 8.76122 0.0201071 10.9061C-0.0937133 13.067 0.275695 15.022 1.12833 16.7711C1.99778 18.5053 3.23696 19.9082 4.84587 20.9798C6.4716 22.0365 8.37037 22.6214 10.5422 22.7346C13.1452 22.8704 15.482 22.1319 17.5525 20.5192L17.3693 23.9987C17.3082 25.1586 16.9714 26.2324 16.3589 27.2201C15.7464 28.2078 14.9204 28.9932 13.8808 29.5763C12.8581 30.1443 11.676 30.3933 10.3346 30.3234C9.39243 30.2743 8.49306 30.0202 7.63651 29.5613C6.77996 29.1025 6.06709 28.4997 5.49792 27.7531L1.11778 31.5635C2.2645 32.8978 3.59688 33.8993 5.11493 34.5679C6.64979 35.2215 8.29553 35.5941 10.0522 35.6857C12.5593 35.8164 14.7827 35.4066 16.7223 34.4562C18.6628 33.49 20.2102 32.081 21.3646 30.2294C22.5199 28.3618 23.1661 26.1252 23.3034 23.5195L23.8532 13.0809C23.9813 10.65 23.5677 8.46961 22.6125 6.53983C21.6572 4.61004 20.305 3.07379 18.5557 1.93107C16.8232 0.773288 14.8311 0.135694 12.5795 0.0182872ZM12.2895 5.5236C13.4073 5.58189 14.4067 5.91281 15.2877 6.51637C16.1695 7.10403 16.8576 7.87278 17.352 8.82262C17.8472 9.75657 18.0664 10.7637 18.0095 11.8442C17.9509 12.9563 17.6179 13.9586 17.0104 14.851C16.4189 15.7442 15.6454 16.4447 14.6899 16.9525C13.7512 17.4453 12.7229 17.6625 11.6051 17.6042C10.4872 17.5459 9.47943 17.2225 8.58167 16.634C7.70071 16.0305 7.01302 15.2538 6.51861 14.3039C6.02419 13.3541 5.80628 12.3231 5.86486 11.2109C5.92345 10.0987 6.24807 9.10396 6.83873 8.22664C7.44536 7.35015 8.22601 6.66595 9.18068 6.17404C10.1354 5.68213 11.1716 5.46531 12.2895 5.5236Z" fill="#5930FF"/>
<path d="M38.8963 36.4728L44.6692 36.7738L45.7413 16.4208L56.6642 16.9903L55.5922 37.3433L61.3651 37.6443L62.7209 11.9052L40.2521 10.7336L38.8963 36.4728Z" fill="#5930FF"/>
<path d="M67.4408 49.4322L73.2616 49.7357L73.9332 36.9853C74.778 37.6666 75.7422 38.2108 76.8256 38.6178C77.9242 39.0415 79.1442 39.2883 80.4857 39.3583C82.8811 39.4832 84.9884 38.9956 86.8078 37.8956C88.6432 36.7964 90.1019 35.2474 91.184 33.2486C92.2661 31.2498 92.8749 28.9634 93.0105 26.3895C93.1478 23.7838 92.7753 21.4303 91.8932 19.3291C91.027 17.2287 89.7226 15.5436 87.98 14.2738C86.2374 13.0039 84.1445 12.3053 81.7012 12.1779C80.232 12.1013 78.8869 12.2542 77.6657 12.6367C76.4446 13.0191 75.3572 13.5997 74.4034 14.3784L74.5013 12.5195L69.3991 12.2534L67.4408 49.4322ZM79.8705 34.1642C77.555 34.0435 75.9352 33.1784 75.0111 31.5688C74.0879 29.9434 73.692 27.8835 73.8234 25.389C73.9556 22.8787 74.5578 20.8708 75.6299 19.3653C76.718 17.8607 78.3639 17.1659 80.5677 17.2808C82.1167 17.3616 83.3662 17.8091 84.3161 18.6233C85.2828 19.4226 85.9718 20.4781 86.3831 21.7901C86.8112 23.087 86.9843 24.5139 86.9023 26.071C86.8194 27.6439 86.505 29.0534 85.9589 30.2995C85.4289 31.5465 84.6567 32.5258 83.6424 33.2377C82.6289 33.9337 81.3716 34.2425 79.8705 34.1642Z" fill="#5930FF"/>
<path d="M121.389 14.9643L116.814 14.7257L103.591 30.4542L104.454 14.0812L98.9205 13.7927L97.5647 39.5319L102.188 39.7729L115.385 23.613L114.5 40.4149L120.033 40.7034L121.389 14.9643Z" fill="#5930FF"/>
<path d="M141.827 41.8398L147.623 42.142L148.979 16.4029L143.182 16.1006L142.557 27.9692C141.926 28.3984 141.163 28.741 140.269 28.997C139.375 29.2531 138.353 29.3512 137.203 29.2912C135.718 29.2138 134.592 28.8603 133.824 28.2308C133.057 27.6013 132.555 26.6431 132.318 25.3562C132.193 24.6965 132.132 24.0321 132.135 23.3631C132.155 22.6791 132.175 22.1544 132.194 21.789L132.523 15.5448L126.678 15.2401L126.349 21.4842C126.326 21.9291 126.302 22.6767 126.279 23.7269C126.256 24.7772 126.322 25.8003 126.478 26.7962C126.822 29.0765 127.753 30.8617 129.27 32.1516C130.804 33.4265 132.905 34.1335 135.572 34.2725C138.111 34.4049 140.348 34.0436 142.282 33.1886L141.827 41.8398Z" fill="#5930FF"/>
<path d="M178.093 17.9209L173.517 17.6824L160.295 33.4108L161.157 17.0379L155.624 16.7494L154.268 42.4885L158.891 42.7296L172.089 26.5696L171.203 43.3716L176.737 43.6601L178.093 17.9209Z" fill="#5930FF"/>
<path d="M183.415 44.0083L189.188 44.3093L189.725 34.109L201.343 34.7147L200.806 44.9151L206.579 45.2161L207.934 19.4769L202.161 19.1759L201.627 29.3286L190.009 28.7228L190.544 18.5702L184.771 18.2692L183.415 44.0083Z" fill="#5930FF"/>
<path d="M222.808 46.0623L235.528 46.7256C236.326 46.7672 237.11 46.7762 237.88 46.7526C238.651 46.7132 239.336 46.6294 239.935 46.5013C241.572 46.1246 242.837 45.3701 243.729 44.2377C244.638 43.0902 245.139 41.6505 245.23 39.9187C245.31 38.3934 245.069 37.1939 244.507 36.3202C243.96 35.4473 243.259 34.7734 242.403 34.2986C241.89 34.0169 241.308 33.8034 240.66 33.6581C241.227 33.5283 241.811 33.2401 242.411 32.7934C243.01 32.3627 243.504 31.7989 243.893 31.1023C244.282 30.4056 244.505 29.5091 244.563 28.4128C244.661 26.5539 244.258 25.0751 243.355 23.9766C242.453 22.8621 241.389 22.0896 240.163 21.6593C239.643 21.4888 239.019 21.3367 238.289 21.2031C237.56 21.0695 236.772 20.9806 235.925 20.9365L224.164 20.3232L222.808 46.0623ZM229.449 31.2573L229.771 25.1323L234.442 25.3759C234.602 25.3842 234.961 25.4188 235.518 25.4797C236.092 25.5256 236.575 25.6304 236.966 25.7942C237.563 26.0165 237.984 26.389 238.229 26.9116C238.489 27.435 238.603 28.0145 238.569 28.65C238.538 29.2537 238.381 29.7952 238.1 30.2745C237.819 30.7378 237.417 31.0673 236.895 31.2631C236.552 31.3886 236.139 31.4707 235.657 31.5093C235.191 31.5328 234.719 31.532 234.24 31.5071L229.449 31.2573ZM228.886 41.9342L229.212 35.7616L235.559 36.0926C235.799 36.1051 236.101 36.1368 236.467 36.1877C236.849 36.2236 237.197 36.3134 237.51 36.4572C238.044 36.6444 238.491 36.9783 238.85 37.4591C239.225 37.9407 239.392 38.5787 239.35 39.3731C239.32 39.9451 239.155 40.4861 238.856 40.9963C238.573 41.5073 238.138 41.8511 237.553 42.0276C237.227 42.1222 236.863 42.1909 236.461 42.2336C236.058 42.2763 235.689 42.289 235.354 42.2715L228.886 41.9342Z" fill="#5930FF"/>
<path d="M249.593 47.459L258.312 47.9136C259.031 47.9511 259.854 47.9781 260.782 47.9946C261.711 47.9952 262.49 47.9403 263.121 47.8297C265.286 47.4488 266.988 46.6134 268.225 45.3237C269.478 44.0189 270.165 42.2305 270.285 39.9585C270.41 37.5752 269.902 35.6767 268.759 34.2629C267.633 32.85 265.988 31.8481 263.825 31.2574C263.224 31.1145 262.47 31.0035 261.561 30.9242C260.669 30.8458 259.863 30.7879 259.144 30.7504L256.246 30.5993L256.698 22.0196L250.925 21.7186L249.593 47.459ZM272.541 48.6555L278.314 48.9565L279.67 23.2174L273.897 22.9164L272.541 48.6555ZM255.579 43.2544L256.009 35.1036L259.482 35.2847C259.801 35.3014 260.16 35.336 260.557 35.3886C260.955 35.4412 261.343 35.5252 261.721 35.6405C262.509 35.8887 263.164 36.361 263.688 37.0574C264.228 37.7547 264.471 38.6197 264.416 39.6525C264.363 40.6535 264.04 41.473 263.446 42.1112C262.853 42.7335 262.191 43.1291 261.462 43.2982C261.057 43.3886 260.638 43.4385 260.205 43.4478C259.788 43.4579 259.404 43.4538 259.053 43.4355L255.579 43.2544Z" fill="#5930FF"/>
<path d="M295.772 50.6316C298.263 50.7774 300.478 50.3751 302.417 49.4247C304.373 48.4752 305.936 47.075 307.106 45.2242C308.277 43.3575 308.93 41.161 309.063 38.6347C309.183 36.3468 308.845 34.258 308.048 32.3683C307.266 30.4795 306.082 28.952 304.494 27.7858C302.906 26.6196 300.962 25.9766 298.663 25.8567C297.146 25.7776 295.629 26.0012 294.112 26.5275C292.596 27.0379 291.304 27.9982 290.237 29.4083C290.425 27.9683 290.856 26.6206 291.531 25.3653C292.206 24.0941 293.138 23.131 294.325 22.476C295.183 21.995 296.186 21.649 297.334 21.438C298.482 21.227 299.683 21.0825 300.936 21.0044C302.205 20.9272 303.425 20.8634 304.597 20.813C305.785 20.7475 306.833 20.6268 307.739 20.451L307.479 15.3472C305.575 15.6144 303.668 15.8017 301.757 15.9092C299.862 16.0175 298.041 16.2332 296.294 16.5564C294.548 16.8795 292.954 17.4895 291.514 18.3862C290.538 18.9726 289.619 19.7133 288.755 20.6083C287.907 21.504 287.214 22.5035 286.675 23.6066C286.154 24.6787 285.708 26.0097 285.336 27.5994C284.981 29.1741 284.719 30.7935 284.552 32.4576C284.384 34.1217 284.312 35.6315 284.337 36.987C284.431 40.9749 285.431 44.1896 287.336 46.6309C289.258 49.0572 292.07 50.3907 295.772 50.6316ZM296.32 45.2592C294.307 45.1543 292.791 44.4618 291.769 43.1818C290.748 41.9017 290.296 40.1416 290.414 37.9013C290.529 35.7246 291.154 34.0366 292.29 32.8372C293.426 31.6378 295.016 31.0914 297.06 31.198C299.072 31.3029 300.588 32.0112 301.608 33.3231C302.644 34.6357 303.104 36.3804 302.99 38.5571C302.878 40.6861 302.253 42.3662 301.115 43.5974C299.994 44.8135 298.396 45.3674 296.32 45.2592Z" fill="#5930FF"/>
<path d="M313.062 62.2394L318.883 62.5429L319.554 49.7925C320.399 50.4738 321.363 51.018 322.447 51.425C323.545 51.8487 324.765 52.0956 326.107 52.1655C328.502 52.2904 330.61 51.8028 332.429 50.7028C334.264 49.6036 335.723 48.0546 336.805 46.0558C337.887 44.057 338.496 41.7706 338.632 39.1967C338.769 36.591 338.397 34.2376 337.514 32.1363C336.648 30.036 335.344 28.3508 333.601 27.081C331.859 25.8112 329.766 25.1126 327.322 24.9852C325.853 24.9086 324.508 25.0615 323.287 25.4439C322.066 25.8263 320.978 26.4069 320.025 27.1856L320.123 25.3267L315.02 25.0606L313.062 62.2394ZM325.492 46.9715C323.176 46.8507 321.556 45.9856 320.632 44.3761C319.709 42.7507 319.313 40.6907 319.445 38.1963C319.577 35.6859 320.179 33.678 321.251 32.1726C322.339 30.668 323.985 29.9731 326.189 30.088C327.738 30.1688 328.987 30.6163 329.937 31.4306C330.904 32.2298 331.593 33.2854 332.004 34.5973C332.432 35.8942 332.605 37.3212 332.523 38.8782C332.441 40.4512 332.126 41.8607 331.58 43.1068C331.05 44.3537 330.278 45.3331 329.264 46.0449C328.25 46.7409 326.993 47.0497 325.492 46.9715Z" fill="#5930FF"/>
<path d="M350.43 53.4338C352.49 53.5412 354.256 53.2987 355.729 52.7063C357.218 52.0989 358.551 51.1089 359.728 49.7365L359.546 53.1922L364.601 53.4557L365.433 37.6547C365.492 36.5426 365.498 35.5153 365.451 34.5728C365.406 33.6145 365.175 32.6705 364.76 31.7407C364.003 29.9965 362.766 28.7053 361.049 27.8669C359.347 27.0294 357.347 26.5507 355.047 26.4308C352.013 26.2726 349.559 26.8058 347.685 28.0304C345.811 29.2551 344.497 30.9391 343.744 33.0825L348.927 35.0017C349.428 33.7055 350.235 32.8156 351.35 32.332C352.464 31.8484 353.604 31.637 354.77 31.6978C356.526 31.7894 357.801 32.2143 358.594 32.9726C359.387 33.715 359.801 34.8279 359.835 36.3113C357.55 36.5268 355.425 36.7426 353.46 36.9587C351.512 37.1599 349.847 37.4475 348.466 37.8216C346.385 38.4141 344.84 39.3292 343.83 40.5671C342.821 41.789 342.267 43.3374 342.168 45.2122C342.094 46.6263 342.353 47.9383 342.946 49.1481C343.554 50.3588 344.487 51.3554 345.743 52.1378C346.999 52.9044 348.562 53.3363 350.43 53.4338ZM351.821 48.9179C350.464 48.8471 349.442 48.4832 348.756 47.826C348.086 47.1698 347.776 46.3729 347.825 45.4355C347.869 44.5934 348.177 43.9244 348.747 43.4284C349.334 42.9332 350.132 42.5287 351.141 42.2149C352.067 41.9605 353.175 41.7554 354.464 41.5995C355.754 41.4278 357.438 41.2368 359.515 41.0264C359.467 41.6294 359.391 42.3025 359.288 43.046C359.186 43.7735 358.999 44.4249 358.729 45.0003C358.506 45.5782 358.098 46.1862 357.504 46.8244C356.926 47.4634 356.161 47.9891 355.211 48.4016C354.26 48.8141 353.131 48.9862 351.821 48.9179Z" fill="#5930FF"/>
<path d="M377.328 54.1194L383.101 54.4204L384.189 33.7814L392.836 34.2323L393.105 29.1321L370.037 27.9293L369.768 33.0295L378.416 33.4804L377.328 54.1194Z" fill="#5930FF"/>
<path d="M396.264 55.1067L406.732 55.6525C407.466 55.6908 408.29 55.7178 409.202 55.7335C410.13 55.7341 410.918 55.6796 411.564 55.5699C413.714 55.1881 415.407 54.3524 416.644 53.0626C417.898 51.7579 418.585 49.9695 418.704 47.6974C418.83 45.3142 418.321 43.4156 417.179 42.0018C416.053 40.573 414.409 39.5712 412.245 38.9963C411.644 38.8535 410.897 38.7428 410.005 38.6644C409.112 38.586 408.298 38.5277 407.564 38.4893L402.917 38.247L403.369 29.6673L397.596 29.3663L396.264 55.1067ZM402.25 50.9021L402.68 42.7514L407.902 43.0237C408.237 43.0412 408.603 43.0762 409.001 43.1288C409.398 43.1814 409.778 43.2649 410.141 43.3794C410.928 43.6276 411.584 44.0999 412.108 44.7964C412.647 45.4936 412.89 46.3587 412.836 47.3914C412.783 48.3924 412.46 49.2119 411.866 49.8501C411.272 50.4724 410.619 50.8685 409.905 51.0384C409.5 51.1288 409.081 51.1786 408.648 51.1879C408.216 51.1972 407.824 51.1927 407.472 51.1744L402.25 50.9021Z" fill="#5930FF"/>
<path d="M433.06 57.0253L438.593 57.3138L439.34 43.1335L445.947 57.6973L448.223 57.8159L456.323 44.019L455.577 58.1994L461.086 58.4867L462.442 32.7475L457.723 32.5015L447.492 49.7959L439.159 31.5335L434.416 31.2862L433.06 57.0253Z" fill="#5930FF"/>
<path d="M479.499 60.1637C481.99 60.2936 484.299 59.7767 486.426 58.6131C488.57 57.4344 490.199 55.703 491.312 53.4191L485.701 51.4059C484.423 53.7927 482.338 54.9108 479.448 54.7601C477.483 54.6577 475.964 54.0128 474.89 52.8257C473.816 51.6226 473.224 49.9507 473.112 47.81L491.844 48.7867C492.231 45.7001 492.029 42.9971 491.238 40.6776C490.448 38.3581 489.143 36.5296 487.324 35.192C485.521 33.8553 483.278 33.117 480.595 32.9771C478.056 32.8447 475.79 33.3001 473.797 34.3433C471.806 35.3707 470.212 36.8967 469.017 38.9215C467.821 40.9462 467.149 43.3647 467.001 46.1769C466.864 48.7826 467.293 51.1152 468.29 53.1746C469.302 55.2348 470.769 56.8806 472.69 58.1119C474.61 59.3432 476.88 60.0272 479.499 60.1637ZM480.57 38.0183C482.358 38.1115 483.707 38.6519 484.616 39.6392C485.541 40.6116 486.079 42.1133 486.228 44.1444L473.484 43.48C474.375 39.639 476.737 37.8184 480.57 38.0183Z" fill="#5930FF"/>
<path d="M496.547 60.3357L502.32 60.6367L502.857 50.4364L514.475 51.0421L513.938 61.2425L519.711 61.5435L521.066 35.8043L515.293 35.5033L514.759 45.656L503.141 45.0502L503.676 34.8976L497.903 34.5965L496.547 60.3357Z" fill="#5930FF"/>
<path d="M524.96 61.8172L531.02 62.1332L536.814 53.832C537.085 53.8462 537.381 53.8616 537.7 53.8782L542.323 54.1193L541.871 62.699L547.644 63L549 37.2609L538.508 36.7138C537.917 36.683 537.182 36.6606 536.302 36.6465C535.423 36.6166 534.555 36.667 533.7 36.7976C531.683 37.0908 530.014 37.9119 528.694 39.261C527.374 40.6101 526.653 42.4445 526.531 44.7642C526.424 46.7821 526.816 48.4674 527.706 49.8202C528.596 51.1571 529.801 52.144 531.321 52.7808L524.96 61.8172ZM537.339 49.3426C537.035 49.3268 536.684 49.3006 536.286 49.2639C535.904 49.2121 535.517 49.1202 535.123 48.9882C534.353 48.7249 533.689 48.2522 533.132 47.57C532.593 46.8727 532.349 46.0235 532.402 45.0226C532.454 44.0375 532.785 43.2183 533.396 42.5651C534.007 41.9119 534.661 41.4999 535.359 41.3292C535.78 41.2396 536.207 41.1902 536.64 41.1809C537.088 41.1724 537.464 41.1761 537.768 41.1919L542.99 41.4642L542.56 49.6149L537.339 49.3426Z" fill="#5930FF"/>
</svg>
